<?xml version="1.0" standalone="no"?>
<!DOCTYPE svg PUBLIC "-//W3C//DTD SVG 20010904//EN"
 "http://www.w3.org/TR/2001/REC-SVG-20010904/DTD/svg10.dtd">
<svg version="1.0" xmlns="http://www.w3.org/2000/svg"
 width="5pt" height="pt" viewBox="0 0 5683.000000 661.000000"
 preserveAspectRatio="xMidYMid meet">

<g transform="translate(0.000000,661.000000) scale(0.100000,-0.100000)"
fill="#000000" stroke="none">
<path d="M18945 6099 c-647 -55 -1242 -335 -1683 -793 -370 -384 -612 -865
-701 -1388 -74 -434 -37 -879 108 -1299 260 -755 865 -1360 1620 -1620 794
-274 1660 -157 2351 319 584 402 980 1023 1099 1724 11 62 25 186 32 276 19
258 -10 558 -81 830 -140 535 -459 1029 -890 1376 -178 143 -456 309 -651 387
-388 155 -811 221 -1204 188z m585 -283 c661 -114 1233 -486 1605 -1042 82
-124 212 -385 260 -523 137 -399 169 -844 89 -1238 -180 -890 -839 -1599
-1706 -1837 -822 -225 -1704 9 -2308 614 -369 369 -615 869 -674 1370 -32 268
-29 444 10 690 160 1022 1001 1838 2034 1975 143 19 558 13 690 -9z"/>
<path d="M18910 5739 c-584 -67 -1111 -344 -1488 -784 -597 -696 -722 -1665
-321 -2486 119 -244 263 -442 460 -635 356 -347 804 -565 1293 -629 152 -20
440 -20 592 0 496 65 934 278 1292 629 290 283 483 599 596 970 70 229 96 414
96 671 -1 360 -74 674 -235 1000 -388 789 -1184 1281 -2060 1274 -82 -1 -184
-5 -225 -10z m357 -435 c3 -9 -2 -90 -11 -181 -10 -91 -16 -167 -14 -169 3 -2
61 -10 131 -17 71 -8 129 -16 132 -18 2 -2 1 -16 -2 -31 -4 -24 -10 -28 -37
-28 -36 0 -286 28 -302 34 -7 3 -3 66 12 202 13 110 23 205 23 212 1 18 60 15
68 -4z m-329 -11 c15 -13 31 -60 56 -166 44 -180 45 -201 11 -223 -27 -18
-238 -72 -315 -81 -36 -4 -48 -1 -63 14 -19 22 -87 284 -87 337 0 19 7 40 16
47 17 14 293 87 335 88 15 1 36 -7 47 -16z m1042 -167 c196 -98 192 -88 111
-258 -76 -158 -103 -198 -135 -198 -34 0 -313 138 -331 163 -8 12 -15 27 -15
34 0 21 131 287 153 311 11 12 32 22 46 21 14 0 91 -33 171 -73z m-1660 -57
c0 -4 -21 -23 -47 -40 -27 -18 -81 -57 -120 -86 l-73 -53 28 -40 c15 -21 32
-39 37 -40 6 0 39 20 73 45 34 25 65 45 68 45 9 0 33 -33 34 -46 0 -6 -29 -31
-65 -55 -35 -24 -65 -47 -65 -52 0 -14 52 -87 63 -87 5 0 61 36 124 81 110 77
115 80 134 63 10 -9 19 -22 19 -28 0 -12 -283 -216 -299 -216 -11 0 -254 340
-248 346 2 3 71 52 153 110 l149 105 18 -22 c9 -12 17 -25 17 -30z m2102 -241
c99 -106 208 -241 208 -257 0 -22 -46 -81 -63 -81 -6 0 -21 10 -34 22 l-23 22
21 22 21 23 -87 98 c-48 54 -94 98 -101 98 -14 0 -214 -171 -214 -183 0 -4 41
-53 91 -110 l91 -103 38 33 c21 18 39 37 39 42 1 4 -17 30 -39 56 -22 26 -40
52 -40 57 0 5 11 15 24 22 25 14 31 9 134 -110 l32 -36 -77 -67 c-113 -97
-114 -97 -253 61 -106 121 -128 157 -117 187 3 7 62 64 132 125 144 127 165
135 217 79z m-2404 -215 l143 -138 -28 -27 -28 -27 -155 149 -155 148 24 26
c18 19 28 23 40 16 9 -6 80 -72 159 -147z m-245 -84 c65 -33 96 -62 97 -92 0
-9 -27 -71 -60 -137 -33 -66 -60 -122 -60 -125 0 -2 32 -21 70 -40 66 -33 70
-37 59 -58 -20 -38 -31 -48 -43 -38 -6 4 -85 46 -176 91 -91 46 -171 88 -178
93 -9 7 5 44 64 156 42 80 83 154 92 164 22 25 65 21 135 -14z m1482 -29 c703
-80 1115 -821 809 -1457 -97 -202 -264 -371 -469 -476 -81 -40 -242 -86 -349
-98 -550 -60 -1063 359 -1115 912 -30 314 74 605 294 824 120 121 252 201 417
254 143 45 265 57 413 41z m1498 -57 l15 -38 -55 -103 c-40 -74 -51 -103 -41
-107 7 -3 56 -20 108 -39 84 -30 97 -37 112 -67 9 -19 12 -35 7 -37 -5 -2 -73
18 -151 44 l-143 47 -83 -33 c-87 -35 -96 -34 -107 11 -6 25 -3 27 79 59 l85
33 71 134 c39 73 75 133 80 133 4 0 15 -17 23 -37z m72 -875 c29 -13 55 -55
55 -88 0 -36 -53 -80 -95 -80 -70 0 -110 80 -69 138 27 39 67 50 109 30z
m-3276 -13 c67 -34 51 -142 -24 -161 -90 -22 -150 99 -78 156 30 24 63 25 102
5z m3165 -820 c99 -36 135 -54 133 -65 -1 -10 -14 -15 -37 -15 -42 0 -52 -27
-20 -53 20 -16 20 -19 7 -31 -14 -11 -34 1 -136 80 -67 51 -121 97 -121 104 0
13 22 36 31 33 3 -2 68 -25 143 -53z m-2944 -11 c25 -43 30 -58 21 -67 -10 -9
-15 -8 -25 6 -7 9 -18 17 -23 17 -6 0 -58 -29 -117 -65 -58 -36 -110 -65 -115
-65 -8 0 -25 30 -19 35 2 1 54 33 116 70 61 37 112 70 112 74 0 3 -4 13 -9 21
-6 8 -7 18 -5 22 13 20 35 3 64 -48z m2831 -126 c45 -57 84 -105 87 -108 2 -3
12 5 22 18 19 23 35 28 45 13 7 -12 -46 -90 -61 -91 -6 0 -49 48 -95 106 l-83
106 -18 -22 c-15 -18 -21 -20 -32 -10 -13 10 -11 17 12 50 15 22 30 39 34 40
4 0 44 -46 89 -102z m-2773 31 c1 -8 -18 -30 -43 -48 -43 -31 -53 -50 -29 -58
6 -2 31 12 56 31 40 31 48 33 59 20 15 -19 19 -15 -122 -118 -83 -62 -117 -81
-126 -74 -7 6 -13 14 -13 18 0 5 53 47 103 81 6 4 6 13 0 23 -8 14 -16 11 -67
-25 -51 -37 -60 -40 -73 -27 -13 14 -1 26 109 106 68 50 128 90 133 88 6 -1
11 -9 13 -17z m2693 -154 c39 -58 74 -105 77 -105 3 0 15 9 27 20 19 17 24 18
34 7 9 -11 3 -23 -27 -57 l-38 -43 -80 116 -80 116 -21 -20 c-16 -17 -22 -18
-31 -6 -9 10 -5 21 19 50 17 21 35 35 40 32 5 -3 41 -53 80 -110z m-2541 -31
c0 -24 -21 -26 -43 -6 l-22 21 -33 -30 c-32 -29 -33 -31 -17 -49 18 -20 13
-40 -10 -40 -8 0 -18 7 -23 16 -8 15 -14 14 -46 -12 -41 -33 -43 -40 -20 -66
14 -15 15 -20 4 -33 -12 -14 -17 -12 -47 17 -18 18 -32 39 -31 46 2 7 53 58
113 112 l110 99 33 -32 c17 -17 32 -37 32 -43z m2474 -77 c70 -66 107 -107
102 -115 -4 -7 -13 -12 -19 -11 -20 0 -230 206 -223 218 14 22 33 9 140 -92z
m-112 -9 c26 -29 48 -57 48 -63 0 -6 -11 -22 -25 -35 l-25 -24 46 -47 c31 -31
45 -53 41 -63 -4 -9 -11 -16 -16 -16 -12 0 -211 215 -211 228 0 12 70 72 84
72 5 0 31 -23 58 -52z m-2225 -32 l28 -25 -20 -36 c-22 -41 -41 -53 -58 -36
-8 8 -5 17 13 36 18 19 21 28 12 37 -25 25 -54 -27 -67 -126 -7 -54 -48 -106
-82 -106 -30 0 -63 29 -63 56 0 28 37 84 56 84 25 0 25 -21 -1 -52 -19 -22
-23 -34 -15 -42 27 -27 63 32 75 128 5 35 15 57 35 78 35 34 51 35 87 4z m103
-82 c55 -39 60 -60 14 -57 -26 3 -35 -6 -94 -93 -76 -112 -85 -121 -104 -105
-12 10 -1 31 65 124 70 99 77 113 63 124 -14 11 -14 43 1 43 3 0 28 -16 55
-36z m1901 -12 c9 -15 47 -74 84 -130 55 -83 66 -106 54 -113 -8 -5 -16 -9
-19 -8 -3 0 -27 34 -53 76 -26 41 -50 73 -53 70 -3 -3 13 -41 35 -86 23 -44
41 -82 41 -85 0 -2 -7 -6 -15 -10 -10 -3 -28 8 -49 32 -108 121 -115 122 -35
2 33 -49 38 -64 28 -71 -8 -5 -16 -9 -19 -9 -3 0 -43 59 -89 131 -79 123 -82
131 -65 144 11 8 22 15 26 15 3 0 34 -30 67 -66 34 -37 61 -62 61 -55 0 6 -16
44 -36 83 l-36 71 24 18 c30 24 30 24 49 -9z m-1806 -52 c4 -6 -23 -63 -59
-128 -59 -105 -64 -118 -50 -132 19 -19 24 -13 100 122 30 54 58 99 62 102 5
3 14 1 22 -4 16 -10 11 -20 -79 -174 -52 -88 -76 -104 -121 -81 -52 27 -48 50
27 184 64 114 83 135 98 111z m1608 -74 c21 -22 107 -202 107 -225 0 -31 -40
-62 -75 -59 -27 3 -35 13 -81 103 -67 131 -69 136 -43 168 23 30 68 36 92 13z
m-1429 -18 c25 -12 48 -28 51 -35 7 -20 -96 -253 -116 -264 -23 -12 -113 26
-106 44 22 54 121 277 123 277 2 0 24 -10 48 -22z m1296 -34 c0 -8 -3 -14 -7
-14 -34 -1 -33 -20 12 -138 25 -67 45 -125 45 -131 0 -12 -28 -22 -34 -13 -5
8 -52 128 -80 204 -15 41 -21 46 -44 45 -48 -3 -29 24 33 48 63 23 75 23 75
-1z m-1188 -69 l-3 -60 32 48 c30 45 51 58 64 37 3 -5 -17 -41 -44 -81 -27
-39 -60 -99 -71 -135 -13 -39 -27 -64 -36 -64 -25 0 -26 26 -5 95 12 38 21 95
21 130 0 75 7 97 29 93 13 -3 15 -15 13 -63z m1044 0 c7 -19 14 -42 14 -50 0
-26 -33 -13 -40 15 -8 32 -40 40 -40 10 0 -13 25 -47 60 -85 69 -72 86 -120
55 -155 -40 -45 -103 -12 -108 56 -3 45 27 43 39 -3 10 -42 37 -52 42 -16 2
16 -15 42 -62 92 -55 59 -66 76 -66 105 0 39 28 66 68 66 17 0 27 -9 38 -35z
m-748 -21 c16 -11 22 -25 22 -52 0 -64 -31 -216 -47 -234 -21 -24 -68 -23 -93
2 -24 24 -24 29 -1 160 15 81 24 108 41 122 27 22 49 23 78 2z m614 -89 c29
-173 21 -215 -41 -215 -52 0 -61 16 -86 160 -13 74 -21 138 -19 142 5 7 34 12
34 6 0 -2 11 -61 24 -132 24 -128 34 -154 55 -142 15 10 14 45 -9 170 -11 60
-20 111 -20 113 0 3 10 3 22 1 20 -3 24 -13 40 -103z m-463 79 c22 -5 31 -12
31 -26 0 -17 -5 -20 -30 -15 -25 6 -31 3 -36 -17 -11 -45 -1 -71 29 -74 20 -3
27 -8 25 -20 -3 -11 -12 -16 -28 -14 -32 3 -40 -12 -40 -81 0 -43 -4 -59 -16
-64 -8 -3 -19 -2 -23 3 -6 7 11 300 18 312 2 4 38 2 70 -4z m262 -15 c14 -14
19 -30 17 -57 -4 -48 -30 -50 -39 -4 -8 41 -13 46 -35 38 -15 -6 -16 -19 -11
-118 4 -62 11 -116 16 -121 19 -19 42 14 39 52 -3 31 0 36 20 39 20 3 22 -1
22 -46 0 -62 -21 -85 -77 -80 -34 3 -39 7 -50 40 -7 20 -13 83 -14 139 -2 95
-1 103 20 121 30 24 66 23 92 -3z"/>
<path d="M18745 5208 c-66 -16 -123 -33 -127 -36 -6 -6 55 -268 65 -278 5 -5
252 52 266 61 12 7 -60 285 -73 284 -6 0 -65 -14 -131 -31z"/>
<path d="M19754 4999 c-36 -72 -64 -132 -62 -134 2 -1 58 -30 125 -64 l123
-61 66 131 c36 72 64 132 62 134 -2 1 -58 30 -125 64 l-123 61 -66 -131z"/>
<path d="M17620 4376 c-30 -58 -53 -106 -50 -109 17 -13 100 -57 109 -57 15 0
114 199 107 216 -6 14 -77 54 -98 54 -7 0 -38 -47 -68 -104z"/>
<path d="M18960 4385 c-172 -34 -326 -119 -461 -254 -182 -183 -269 -390 -269
-645 0 -261 85 -464 274 -651 185 -183 383 -265 641 -265 260 0 464 86 650
274 116 117 170 204 223 359 32 92 36 115 40 238 7 198 -17 309 -99 470 -119
231 -363 418 -610 469 -110 23 -289 25 -389 5z m567 -390 c53 -16 96 -55 114
-104 14 -35 13 -390 -1 -427 -14 -36 -46 -71 -85 -92 -26 -15 -78 -18 -365
-22 l-335 -5 -3 -192 -2 -193 -90 0 -90 0 0 525 0 525 403 0 c331 0 412 -3
454 -15z"/>
<path d="M18862 3842 c-9 -6 -12 -47 -10 -168 l3 -159 293 0 c279 0 294 1 308
19 10 15 14 53 14 146 0 178 26 164 -319 168 -152 1 -282 -2 -289 -6z"/>
<path d="M20650 2706 c0 -8 78 -54 84 -49 13 13 5 25 -29 39 -33 14 -55 18
-55 10z"/>
<path d="M20262 2348 c-17 -17 46 -82 64 -67 11 9 8 18 -12 45 -29 37 -34 40
-52 22z"/>
<path d="M19866 2083 c-14 -14 -4 -48 39 -133 43 -85 64 -106 81 -79 8 14 -84
206 -102 213 -7 3 -15 2 -18 -1z"/>
<path d="M18420 1949 c-32 -75 -40 -103 -31 -112 7 -7 14 -7 20 -2 17 18 91
196 86 206 -16 25 -35 0 -75 -92z"/>
<path d="M18841 1918 c-5 -13 -17 -63 -26 -111 -13 -70 -14 -91 -4 -103 10
-12 15 -13 25 -2 15 15 49 201 40 223 -8 22 -25 18 -35 -7z"/>
<path d="M34582 6025 c-149 -33 -248 -140 -275 -301 -15 -90 3 -157 100 -358
79 -164 97 -231 74 -275 -27 -49 -56 -19 -198 205 -120 188 -196 282 -276 338
-51 36 -65 41 -128 44 -65 4 -76 1 -144 -32 -166 -82 -337 -315 -459 -625 -72
-182 -135 -432 -186 -735 -34 -201 -83 -613 -75 -627 7 -11 272 -12 279 -1 3
5 23 156 46 338 48 387 93 621 154 809 78 236 163 393 264 488 97 90 147 60
287 -174 129 -216 195 -293 294 -340 66 -32 169 -32 233 -1 111 55 195 185
205 315 9 128 -24 232 -143 450 -60 109 -46 163 41 159 136 -6 310 -181 429
-433 159 -337 242 -754 269 -1359 l12 -255 135 0 135 0 -1 205 c-9 1151 -394
2067 -911 2166 -87 16 -80 16 -161 -1z"/>
<path d="M51995 6004 c-242 -36 -379 -89 -764 -293 -40 -22 -116 -54 -168 -72
-114 -39 -122 -50 -98 -125 16 -50 16 -58 1 -100 -33 -97 -142 -233 -253 -315
-33 -25 -55 -50 -59 -67 -4 -15 -23 -49 -44 -77 -315 -420 -478 -824 -536
-1322 -20 -169 -14 -512 11 -673 36 -237 108 -479 205 -693 54 -119 176 -339
220 -397 l19 -25 159 79 c155 77 161 79 213 73 90 -11 129 -26 139 -52 7 -19
-7 -82 -60 -276 -37 -139 -66 -257 -63 -263 15 -33 286 -236 423 -316 513
-300 1089 -418 1670 -344 106 14 249 40 256 46 1 2 -6 62 -17 133 -25 163 -90
678 -86 682 2 1 32 7 66 11 44 6 64 6 67 -2 2 -6 33 -181 68 -389 35 -208 67
-381 71 -385 3 -3 44 7 91 22 81 28 85 31 80 55 -3 14 -13 69 -21 121 -9 52
-38 206 -65 343 -28 136 -50 251 -50 257 0 5 21 12 48 15 26 3 56 8 68 10 19
4 24 -8 64 -188 23 -105 57 -263 75 -350 18 -87 35 -161 38 -163 7 -8 147 65
147 76 0 5 -31 152 -70 326 -38 175 -69 319 -67 320 1 1 33 7 71 12 48 6 69 6
72 -2 2 -6 33 -130 69 -276 36 -146 68 -273 73 -283 6 -16 18 -10 97 44 155
105 305 231 305 255 0 9 -321 726 -494 1101 -57 124 -64 147 -46 158 9 5 477
-26 675 -45 144 -14 283 -39 338 -61 69 -28 147 -68 184 -95 17 -13 34 -21 36
-17 8 12 63 210 81 288 101 440 80 937 -56 1365 -230 721 -756 1308 -1446
1614 -328 145 -672 216 -1050 216 -158 0 -216 4 -292 20 -92 19 -330 34 -395
24z m435 -133 c413 -96 693 -347 814 -729 49 -156 73 -418 39 -429 -6 -2 -35
41 -63 95 -69 131 -171 294 -189 300 -11 4 -13 -3 -7 -34 4 -22 13 -78 21
-126 15 -95 29 -127 87 -205 40 -53 68 -124 68 -174 l0 -27 -142 0 c-149 0
-408 -28 -522 -58 -76 -20 -110 -37 -165 -85 -38 -34 -50 -39 -95 -39 -28 -1
-69 -7 -91 -15 -56 -21 -72 -19 -130 14 -96 54 -152 65 -315 58 -80 -4 -199
-15 -264 -27 -74 -12 -123 -17 -129 -11 -5 5 -12 29 -14 54 -5 40 -2 48 29 83
34 38 35 41 42 149 17 294 134 522 291 569 95 28 235 31 325 8 l75 -20 45 44
c37 37 43 47 34 62 -16 26 -182 106 -260 127 -156 40 -346 27 -531 -36 -136
-46 -153 -38 -79 36 59 58 158 130 229 166 75 38 76 59 2 59 -61 0 -66 6 -32
37 60 55 281 137 477 177 61 12 366 -3 450 -23z m-865 -581 c3 -5 -18 -24 -47
-43 -85 -54 -177 -173 -214 -279 -11 -28 -37 -72 -60 -97 -82 -92 -98 -161
-99 -424 0 -202 2 -195 -53 -212 -19 -5 -25 -1 -38 32 -26 60 -42 176 -49 343
-3 85 -8 164 -11 175 -4 11 -24 48 -46 82 -22 35 -38 69 -35 76 3 8 27 20 54
26 75 19 149 64 258 156 103 87 203 148 271 164 53 12 62 13 69 1z m1545 -835
c0 -19 -5 -25 -22 -25 -13 0 -33 -3 -45 -6 -16 -4 -25 -1 -29 10 -12 32 3 46
51 46 41 0 45 -2 45 -25z m-157 -32 c21 -20 22 -62 2 -69 -16 -6 -145 61 -145
76 0 24 114 18 143 -7z m274 -5 c6 -13 18 -67 28 -120 18 -100 28 -114 57 -80
27 31 29 53 8 89 -24 41 -25 66 -4 87 26 26 62 20 83 -15 46 -75 34 -223 -34
-437 -24 -76 -46 -153 -50 -172 -11 -59 -16 -70 -30 -70 -7 0 -15 7 -19 15 -6
18 -26 20 -26 3 0 -6 -11 -34 -24 -62 -23 -49 -24 -57 -14 -131 14 -109 4
-292 -21 -388 -11 -43 -36 -108 -56 -145 -44 -85 -149 -206 -240 -277 -74 -59
-107 -67 -149 -39 -32 20 -39 6 -24 -50 12 -44 11 -46 -40 -148 -36 -70 -52
-115 -52 -140 0 -33 -3 -38 -23 -38 -58 0 -279 186 -317 267 -22 48 -26 130
-10 229 9 56 3 126 -16 187 -9 29 22 19 55 -18 17 -19 33 -35 36 -35 9 0 6 87
-5 114 -6 18 -21 28 -52 37 -60 16 -62 18 -37 45 30 32 107 54 185 54 86 0
154 16 252 58 l84 36 36 -19 c31 -17 38 -27 45 -65 16 -86 28 -120 41 -120 25
0 38 30 47 110 7 62 17 94 42 138 30 53 32 63 31 148 -1 121 -20 163 -84 184
-31 11 -72 41 -137 103 -90 85 -155 126 -200 127 -31 0 -37 -16 -23 -61 13
-39 13 -40 -20 -74 -102 -106 -269 -114 -364 -19 -45 45 -54 76 -43 147 5 34
10 124 11 200 l1 139 29 24 c23 20 37 24 75 22 45 -3 47 -4 74 -58 37 -74 59
-94 91 -86 38 9 51 40 30 71 -24 36 -12 41 50 22 71 -23 146 -21 236 4 93 27
106 26 131 -5 17 -21 29 -26 65 -26 46 0 48 -3 44 -50 -3 -33 -16 -59 -52 -96
-25 -27 -28 -35 -19 -53 7 -12 16 -21 22 -21 22 0 70 43 94 85 34 57 42 88 55
208 6 56 15 108 19 115 9 16 91 70 107 71 6 1 15 -9 21 -21z m-431 -64 c32
-20 71 -44 86 -53 71 -41 -3 -42 -84 -1 -66 34 -97 37 -156 16 -68 -24 -62 11
8 53 49 29 77 26 146 -15z m-1236 -92 c0 -13 -139 -122 -155 -122 -25 0 -30
30 -10 66 18 34 43 48 110 62 40 9 55 7 55 -6z m270 0 c32 -26 17 -42 -37 -42
-36 0 -65 -10 -130 -45 -76 -41 -133 -57 -133 -37 0 8 43 40 144 109 57 39
119 45 156 15z m-508 -17 c0 -8 1 -21 2 -27 1 -17 -86 -29 -96 -14 -15 22 -8
45 15 49 50 10 77 7 79 -8z m-146 -106 c3 -6 12 -36 19 -67 8 -32 19 -76 26
-99 27 -88 -19 -67 -73 33 -44 80 -48 116 -15 132 29 14 34 14 43 1z m796 -39
c-17 -29 -16 -30 10 -57 l27 -27 26 24 25 23 0 -37 c0 -50 -32 -109 -95 -178
-39 -42 -56 -70 -66 -109 -11 -43 -20 -56 -54 -77 -22 -14 -57 -40 -78 -59
-77 -69 -114 -66 -196 16 -55 55 -105 136 -95 153 3 4 19 1 35 -8 45 -23 83
-15 87 18 3 23 -3 30 -46 52 -50 25 -105 79 -125 123 -10 22 -8 27 13 44 32
24 42 24 82 -1 18 -11 37 -20 41 -20 4 0 28 22 53 49 25 27 57 54 72 59 15 6
72 12 127 14 67 3 110 9 130 20 39 21 48 14 27 -22z m110 -320 c-2 -19 4 -51
12 -71 8 -20 12 -39 9 -43 -13 -13 -41 -5 -64 20 -43 46 -25 139 25 132 17 -2
20 -9 18 -38z m656 -149 c59 -61 87 -82 120 -90 23 -7 42 -17 42 -24 -1 -39
-50 -57 -162 -57 -197 0 -492 -39 -634 -84 -85 -28 -134 -32 -165 -16 -27 15
-24 22 26 58 24 17 58 50 75 74 50 69 94 83 175 53 48 -17 164 -19 198 -4 13
6 31 23 40 39 10 15 41 41 70 58 28 16 61 39 71 51 34 38 61 27 144 -58z
m1082 15 c0 -7 -9 -20 -20 -27 -17 -12 -60 -132 -60 -169 0 -5 45 25 100 67
90 70 119 103 90 103 -5 0 -10 9 -10 20 0 20 5 20 125 18 122 -3 148 -11 109
-33 -24 -13 -244 -185 -244 -191 0 -2 30 -49 66 -103 44 -66 76 -103 94 -111
18 -8 27 -17 23 -26 -4 -11 -27 -14 -97 -14 -115 0 -134 11 -212 119 -32 44
-61 77 -65 73 -3 -4 -14 -36 -24 -71 -16 -59 -16 -66 -1 -76 9 -7 16 -20 16
-29 0 -14 -16 -16 -130 -16 -71 0 -130 3 -130 6 0 4 16 21 35 38 31 28 39 46
80 196 42 153 48 200 24 200 -5 0 -9 9 -9 20 0 19 7 20 120 20 95 0 120 -3
120 -14z m830 3 c0 -21 -23 -104 -31 -113 -5 -6 -16 -3 -27 7 -14 13 -38 17
-99 17 -80 0 -81 0 -86 -27 -3 -16 -9 -36 -12 -45 -6 -16 1 -18 74 -18 91 0
89 2 70 -76 -8 -32 -15 -42 -22 -35 -6 6 -44 11 -84 11 l-72 0 -10 -37 c-23
-90 -24 -93 -6 -113 9 -10 14 -24 10 -29 -10 -16 -215 -15 -215 2 0 6 23 93
50 192 55 196 58 220 33 233 -10 6 -14 16 -10 26 6 14 32 16 222 16 144 0 215
-3 215 -11z m471 1 l37 -10 -16 -60 c-9 -33 -20 -60 -25 -60 -4 0 -20 9 -36
21 -39 29 -98 34 -164 15 -163 -48 -167 -243 -4 -287 39 -10 78 -9 154 7 l31
6 -12 -48 c-11 -45 -15 -49 -52 -57 -21 -5 -86 -7 -144 -5 -123 4 -181 26
-233 91 -43 53 -50 144 -16 212 40 80 122 140 232 170 62 16 197 19 248 5z
m99 -19 c0 -4 -9 -12 -19 -18 -16 -10 -18 -9 -14 6 4 16 33 26 33 12z m-3472
-233 c5 -7 22 -57 36 -111 55 -208 134 -358 176 -332 4 3 11 20 14 39 4 19 13
39 21 46 12 10 16 8 24 -11 89 -209 90 -213 79 -227 -18 -21 -94 -9 -165 24
-112 53 -242 217 -295 373 -19 56 -20 65 -7 113 11 40 22 58 48 75 39 26 54
28 69 11z m882 -77 c0 -29 -296 -96 -354 -80 -40 11 -55 27 -35 40 12 7 150
34 224 42 63 8 165 7 165 -2z m669 -365 c47 -50 78 -237 66 -406 -8 -135 -46
-359 -81 -478 -25 -89 -27 -111 -6 -98 17 10 58 107 95 221 48 151 83 314 102
480 9 76 18 141 20 143 8 9 46 -21 60 -48 29 -57 112 -474 166 -838 20 -133
21 -154 8 -166 -8 -9 -57 -19 -124 -25 -60 -6 -258 -27 -439 -47 -263 -29
-330 -34 -336 -24 -5 8 -11 34 -15 58 -10 67 -61 207 -106 290 -33 61 -37 72
-22 72 40 0 195 -87 325 -181 137 -99 120 -41 -29 101 -51 48 -93 93 -93 99 0
7 28 11 78 11 99 0 122 14 121 73 -1 81 -25 218 -40 228 -22 14 -128 10 -189
-6 -65 -18 -60 -17 -60 -6 0 4 34 34 75 65 151 117 299 298 361 442 15 35 30
64 34 64 3 0 17 -11 29 -24z m-1543 -374 c71 -63 176 -130 299 -188 63 -31
115 -60 115 -64 0 -5 -17 -12 -37 -15 -76 -13 -113 -26 -138 -48 -25 -22 -25
-22 -14 -112 16 -133 21 -148 54 -164 26 -13 42 -12 129 2 55 10 101 16 102
14 2 -2 -17 -43 -41 -93 -44 -87 -69 -174 -47 -160 5 3 35 44 66 90 61 92 178
209 204 204 12 -2 16 -12 14 -32 -9 -69 -124 -357 -164 -409 -10 -14 -69 -28
-258 -62 -135 -23 -288 -51 -341 -60 -122 -22 -145 -17 -159 35 -41 153 -63
496 -40 648 9 64 27 91 61 92 10 0 38 -42 79 -117 98 -184 161 -274 273 -388
97 -99 137 -125 137 -90 0 8 -40 64 -88 125 -117 145 -182 265 -253 471 -29
84 -32 107 -33 210 -1 85 3 120 13 132 7 10 16 17 18 17 3 0 25 -17 49 -38z
m843 -881 c7 -33 8 -58 2 -64 -5 -5 -28 -11 -51 -14 -35 -5 -42 -3 -37 8 3 8
18 44 34 82 29 73 34 72 52 -12z"/>
<path d="M52988 2065 c2 -14 9 -25 14 -25 5 0 6 5 3 10 -4 6 -1 17 5 25 10 12
9 15 -7 15 -16 0 -19 -5 -15 -25z"/>
<path d="M53031 2063 c0 -16 3 -22 6 -14 4 11 7 11 14 0 4 -7 11 -11 14 -7 7
7 -16 48 -27 48 -5 0 -8 -12 -7 -27z"/>
<path d="M53075 2080 c-3 -5 -1 -18 4 -27 9 -16 10 -14 11 10 0 28 -5 34 -15
17z"/>
<path d="M4015 5160 c2 -80 7 -325 10 -545 3 -220 8 -484 11 -587 l6 -186 57
-16 c32 -9 60 -16 64 -16 9 0 8 346 -3 775 -9 384 -8 379 -95 587 l-56 133 6
-145z"/>
<path d="M43220 5126 l-83 -64 -90 44 c-50 24 -95 44 -101 43 -6 0 -41 -36
-78 -78 l-67 -78 -93 23 c-51 13 -98 24 -103 24 -6 0 -33 -40 -60 -90 l-50
-89 -109 -3 -110 -3 -28 -94 c-15 -52 -30 -96 -33 -99 -2 -2 -47 -12 -100 -22
-53 -10 -98 -20 -102 -23 -3 -3 -10 -52 -17 -108 l-11 -101 -95 -40 c-52 -21
-100 -42 -106 -44 -15 -7 -68 61 -94 117 -11 24 -20 62 -20 84 -1 109 -59 185
-171 225 -96 33 -296 37 -1976 44 -813 3 -1598 9 -1744 12 -239 5 -268 4 -282
-11 -23 -22 -21 -37 7 -94 48 -94 162 -173 321 -220 64 -19 72 -24 88 -60 41
-91 154 -185 276 -231 55 -20 63 -27 92 -78 61 -108 185 -199 319 -233 46 -12
56 -19 87 -66 74 -111 233 -201 389 -219 49 -6 56 -11 113 -75 79 -88 182
-142 316 -166 82 -14 93 -19 125 -53 19 -20 54 -49 78 -65 23 -15 42 -29 42
-30 0 -1 -39 -26 -87 -55 -111 -68 -404 -263 -443 -297 -47 -39 -104 52 454
-728 142 -198 268 -370 279 -383 26 -28 34 -28 142 8 136 46 447 133 655 183
422 103 841 175 1284 222 206 22 190 26 210 -45 l17 -60 108 0 109 0 40 -77
c64 -123 51 -116 167 -87 l100 25 40 -48 c22 -26 54 -63 71 -82 l31 -34 95 45
96 46 68 -55 c104 -83 93 -82 183 -13 44 33 85 60 91 60 6 0 46 -18 90 -40 44
-22 86 -40 94 -40 8 0 43 34 77 75 34 41 69 75 78 74 9 0 57 -11 106 -23 l90
-23 39 71 c71 131 53 119 173 115 l105 -4 19 63 c15 45 24 62 37 62 29 0 336
-39 482 -61 601 -90 1088 -208 1707 -412 24 -8 36 -7 48 3 8 7 108 139 222
294 268 364 388 526 485 657 43 58 78 115 78 127 0 13 -21 36 -62 67 -68 51
-349 240 -438 294 l-55 34 25 16 c14 9 50 39 81 68 41 39 64 53 85 53 16 0 64
9 106 20 129 32 231 94 288 174 28 38 39 46 66 46 43 0 194 44 253 75 60 30
151 112 176 158 15 29 28 37 77 51 143 40 276 137 325 237 20 41 29 48 95 73
131 51 230 133 275 228 14 31 26 40 58 48 174 45 289 116 345 213 32 56 37 88
17 105 -18 15 -3805 37 -3907 22 -80 -11 -170 -47 -208 -83 -37 -34 -52 -71
-62 -152 -11 -85 -26 -119 -77 -176 -23 -26 -39 -36 -47 -30 -6 5 -47 23 -91
41 -44 18 -86 37 -92 43 -7 5 -13 28 -13 52 0 23 -3 69 -6 102 l-7 60 -105 19
-106 20 -12 44 c-6 25 -19 71 -28 103 l-17 57 -109 0 -108 0 -46 90 c-26 50
-53 90 -61 90 -7 0 -55 -10 -106 -21 l-92 -22 -46 54 c-25 29 -57 66 -71 81
l-25 28 -94 -45 -94 -45 -76 57 c-41 32 -80 61 -87 65 -6 4 -47 -20 -94 -56z
m235 -151 c490 -38 979 -374 1209 -831 25 -49 50 -102 55 -117 11 -28 10 -28
-20 -25 -29 3 -36 12 -85 106 -210 405 -554 674 -997 780 -102 24 -130 26
-317 26 -184 0 -217 -3 -320 -26 -287 -64 -545 -211 -748 -423 -97 -101 -207
-257 -261 -372 -30 -62 -38 -72 -65 -76 -17 -3 -33 -3 -35 -1 -8 7 90 194 147
279 214 323 536 551 914 645 112 28 316 50 403 44 22 -2 76 -6 120 -9z m-126
-191 c2 -2 -1 -9 -7 -17 -8 -10 -7 -32 6 -87 l17 -73 23 55 c18 43 21 61 13
81 -6 15 -15 27 -21 27 -6 0 -9 4 -6 9 5 7 106 3 115 -5 2 -2 -2 -10 -8 -18
-9 -10 -10 -33 -6 -73 11 -90 18 -92 50 -14 23 58 26 73 15 86 -11 13 -7 15
29 15 45 0 49 -5 26 -30 -9 -10 -35 -62 -59 -116 -37 -84 -47 -99 -69 -102
-22 -3 -25 1 -32 44 -13 90 -19 93 -48 25 -23 -53 -31 -62 -49 -59 -20 3 -26
16 -49 117 -15 62 -32 118 -38 124 -6 6 -11 14 -11 18 0 6 101 0 109 -7z
m-303 -92 c-3 -3 -15 3 -25 12 -14 13 -28 16 -50 11 -17 -4 -31 -10 -31 -13 0
-16 21 -82 26 -82 16 0 44 23 44 35 0 28 18 15 30 -21 13 -40 8 -53 -14 -35
-8 7 -24 10 -36 6 -21 -7 -21 -13 1 -72 10 -27 7 -26 47 -12 20 7 34 21 42 42
11 29 13 30 20 12 22 -53 16 -60 -85 -88 -113 -32 -124 -33 -102 -9 14 16 13
25 -12 112 -19 67 -32 96 -44 98 -34 7 -15 18 76 43 l92 26 13 -30 c7 -16 11
-32 8 -35z m713 7 c2 -6 -1 -9 -7 -5 -15 9 -24 -8 -53 -106 -24 -79 -25 -88
-11 -102 21 -21 7 -21 -64 0 -48 14 -66 34 -29 34 23 0 76 192 56 204 -6 4 -9
11 -6 15 6 11 109 -25 114 -40z m-4104 11 c1057 -7 1704 -14 1745 -21 75 -12
151 -42 176 -70 10 -11 21 -45 25 -79 16 -136 67 -230 167 -304 53 -39 53 -40
50 -90 -3 -47 -5 -51 -30 -54 -36 -4 -139 22 -205 53 -101 46 -188 151 -238
288 -12 32 -25 49 -39 52 -12 2 -723 9 -1581 14 -1489 9 -1566 11 -1685 30
-146 23 -213 42 -295 83 -57 29 -125 83 -125 100 0 10 36 10 2035 -2z m4276
-146 c23 -115 23 -115 53 -56 22 43 25 57 15 68 -18 22 -4 27 29 10 36 -19 49
-36 28 -36 -8 0 -39 -43 -71 -100 -31 -55 -60 -100 -65 -100 -15 0 -20 15 -41
132 -11 62 -22 114 -23 116 -2 2 -21 -27 -41 -64 -30 -53 -36 -71 -27 -85 17
-27 4 -29 -38 -5 -45 24 -49 33 -19 38 31 4 113 151 104 185 l-6 25 43 -24
c42 -23 43 -25 59 -104z m3382 100 c939 -4 1710 -10 1712 -14 7 -12 -59 -67
-113 -94 -69 -35 -156 -62 -268 -83 -94 -17 -179 -18 -1715 -14 l-1617 4 -21
-59 c-68 -181 -173 -275 -359 -319 -57 -13 -79 -15 -98 -7 -22 10 -23 16 -18
59 4 33 13 52 28 62 11 8 48 42 82 76 68 68 102 140 111 235 7 72 21 93 85
124 69 34 168 46 343 40 77 -2 908 -7 1848 -10z m-4548 -16 c-6 -31 86 -184
109 -180 30 5 16 -16 -28 -42 -47 -27 -80 -36 -59 -15 9 9 7 22 -9 53 -11 23
-22 42 -23 44 -4 4 -64 -26 -82 -40 -17 -14 25 -88 50 -88 9 0 17 -3 17 -8 0
-8 -86 -62 -100 -62 -13 0 -13 13 0 26 6 6 -9 40 -42 97 -43 72 -55 86 -71 81
-37 -12 -12 16 42 47 52 30 54 30 48 8 -6 -23 17 -79 33 -79 15 0 80 41 80 51
0 21 -33 59 -51 59 -31 0 -22 13 29 42 58 34 64 34 57 6z m-265 -220 c0 -5
-11 -6 -25 -2 -15 4 -32 1 -41 -7 -13 -11 -6 -22 56 -84 56 -56 77 -71 94 -67
16 4 11 -6 -24 -42 -46 -48 -65 -58 -56 -28 6 20 -118 155 -138 149 -6 -2 -12
-18 -14 -35 -4 -38 -14 -40 -35 -9 -15 21 -13 25 61 99 l76 78 23 -22 c13 -12
23 -25 23 -30z m1719 7 c33 -16 101 -92 101 -111 0 -18 -52 -56 -62 -46 -5 5
-4 20 3 35 10 22 9 31 -5 52 -37 56 -90 52 -144 -9 -38 -43 -42 -91 -13 -127
l19 -24 26 24 c20 19 24 30 19 50 -6 25 -4 24 39 -14 46 -40 62 -70 32 -58 -9
3 -27 -5 -44 -22 -20 -19 -34 -25 -49 -20 -34 11 -108 90 -116 124 -24 109 94
198 194 146z m-5702 -11 l412 -6 30 -52 c28 -50 69 -93 120 -126 22 -15 8 -17
-195 -29 -452 -26 -731 41 -845 200 l-22 31 44 -6 c24 -3 229 -9 456 -12z
m2688 -20 l60 -6 35 -76 c62 -137 179 -238 328 -287 41 -13 50 -20 42 -30 -6
-7 -8 -19 -4 -28 16 -42 -165 -21 -281 34 -70 33 -152 110 -202 192 -36 57
-36 58 -77 53 -23 -3 -106 -10 -186 -16 -134 -9 -222 -15 -610 -40 -662 -42
-990 -8 -1191 121 -45 28 -89 72 -89 88 0 8 2095 3 2175 -5z m2337 -38 c53
-13 130 -40 171 -59 82 -38 209 -121 247 -162 l23 -25 -42 0 c-34 0 -55 9
-104 44 -80 57 -161 97 -267 132 -80 27 -95 28 -255 28 -158 0 -176 -2 -255
-28 -92 -30 -212 -90 -269 -135 -34 -26 -131 -51 -131 -33 0 12 115 100 185
141 143 84 281 119 471 120 108 1 149 -3 226 -23z m4061 -6 c11 -10 -74 -85
-130 -113 -173 -88 -443 -119 -853 -98 -201 11 -684 46 -970 71 -170 15 -161
17 -195 -41 -37 -63 -138 -159 -197 -188 -60 -28 -224 -64 -261 -55 -22 5 -28
10 -24 25 3 11 -2 23 -11 28 -19 11 -25 8 72 37 127 38 241 141 304 276 l37
79 1110 -7 c611 -3 1114 -10 1118 -14z m996 -11 c-52 -73 -180 -140 -326 -171
-78 -17 -137 -21 -288 -22 -199 -1 -445 11 -445 23 1 3 21 19 45 34 42 27 93
88 108 130 6 16 32 17 344 18 186 1 372 5 413 9 41 4 97 7 123 8 l48 2 -22
-31z m-5317 -76 c13 -12 18 -30 18 -70 l0 -54 -57 3 -58 3 0 54 c1 40 6 57 20
67 25 19 54 18 77 -3z m162 -5 c9 -13 16 -43 16 -70 l0 -48 -60 0 -60 0 0 58
c0 32 5 63 12 70 21 21 75 15 92 -10z m-314 -28 c12 -12 20 -33 20 -55 l0 -35
-60 0 -60 0 0 35 c0 39 28 75 60 75 11 0 29 -9 40 -20z m461 -1 c23 -23 24
-95 2 -93 -7 1 -33 2 -58 3 -45 1 -45 1 -45 38 0 66 57 96 101 52z m157 -67
c21 -28 8 -37 -49 -33 -30 1 -56 5 -59 8 -3 3 8 16 23 29 31 27 62 25 85 -4z
m-768 3 c19 -23 2 -35 -51 -35 -53 0 -54 1 -39 31 13 23 72 26 90 4z m-1863
-32 c9 -16 37 -52 61 -80 24 -29 38 -53 30 -53 -17 0 -472 -36 -693 -55 -533
-45 -606 -49 -740 -37 -217 19 -352 69 -440 163 -68 72 -63 79 40 55 204 -48
528 -48 1255 -1 135 9 283 20 330 24 140 13 138 14 157 -16z m-2412 -18 c110
0 264 4 342 8 l141 9 26 -45 c15 -24 51 -68 82 -97 30 -29 53 -54 51 -56 -13
-13 -273 -26 -417 -21 -177 6 -274 25 -377 72 -51 23 -163 118 -163 137 0 6
23 6 58 1 31 -4 147 -8 257 -8z m7175 -9 c107 -9 222 -18 255 -21 543 -47
1028 -43 1194 10 34 11 25 -12 -29 -69 -148 -157 -400 -191 -986 -132 -131 13
-316 31 -699 67 -167 15 -195 19 -195 30 0 5 4 9 9 9 6 0 31 30 58 66 l48 66
75 -6 c41 -3 163 -12 270 -20z m2116 -41 l251 0 -20 -27 c-23 -31 -84 -76
-142 -105 -92 -47 -245 -73 -419 -73 -99 0 -377 19 -385 26 -2 2 22 26 52 54
31 28 68 71 84 96 l28 45 150 -8 c83 -4 263 -8 401 -8z m-4281 -26 c672 -36
1422 -202 2075 -458 280 -110 688 -307 935 -451 128 -75 510 -325 562 -367
l21 -18 -111 -152 c-62 -83 -173 -234 -247 -335 -241 -329 -333 -453 -345
-466 -9 -10 -45 9 -181 101 -705 476 -1489 777 -2334 896 -293 42 -464 53
-800 53 -338 1 -516 -11 -820 -53 -818 -114 -1620 -421 -2318 -887 -68 -45
-127 -82 -132 -82 -4 0 -90 116 -192 258 -102 141 -256 356 -343 477 -86 121
-159 225 -162 230 -4 13 11 24 187 142 977 651 2143 1039 3340 1113 303 19
512 18 865 -1z m-2332 -131 c15 -5 27 -13 27 -17 0 -3 -30 -15 -67 -25 -38
-10 -149 -45 -248 -77 -172 -55 -233 -68 -425 -89 -47 -5 -148 -17 -225 -26
-101 -11 -192 -15 -330 -12 -171 4 -198 7 -270 31 -89 29 -155 68 -200 117
-30 33 -30 33 -5 26 49 -14 366 -18 500 -7 74 6 241 20 370 31 269 22 593 48
725 59 50 5 97 6 105 4 8 -3 27 -10 43 -15z m4127 -23 c85 -8 301 -29 480 -45
179 -17 399 -38 490 -46 111 -11 223 -14 343 -11 97 3 177 1 177 -3 0 -15 -76
-69 -132 -95 -113 -51 -167 -60 -388 -59 -113 0 -241 6 -285 12 -44 7 -150 22
-235 33 -241 30 -256 33 -410 87 -80 28 -188 64 -240 80 l-95 30 35 16 c44 19
70 20 260 1z m-5972 -82 c22 -32 58 -71 81 -88 22 -16 41 -33 41 -36 0 -8 -88
-17 -245 -25 -190 -10 -391 18 -490 68 -32 17 -125 88 -125 96 0 4 91 9 203
10 111 1 263 8 337 16 74 7 140 14 147 15 7 0 30 -25 51 -56z m7848 -14 c153
-13 276 -19 342 -15 56 2 102 1 102 -4 0 -16 -74 -73 -125 -96 -152 -70 -347
-86 -636 -52 l-97 11 68 67 c37 37 71 76 74 88 9 26 -18 26 272 1z m-7516
-226 c19 -26 59 -66 89 -88 l53 -40 -38 -9 c-22 -5 -122 -9 -224 -10 -149 0
-197 3 -250 18 -76 21 -169 68 -200 101 l-22 23 99 7 c128 8 397 36 402 41 2
2 16 4 30 4 19 0 35 -12 61 -47z m699 33 c-2 -2 -76 -36 -164 -75 l-159 -72
-51 12 c-84 20 -215 86 -215 108 0 3 91 7 203 8 111 1 231 6 267 11 72 10 126
14 119 8z m5666 -46 c91 -11 201 -18 282 -17 128 2 131 2 115 -16 -34 -38
-181 -97 -241 -97 -14 0 -87 29 -162 65 -76 36 -142 65 -148 65 -5 0 -13 5
-16 10 -8 12 -11 13 170 -10z m711 0 c82 -11 206 -23 277 -27 70 -3 127 -8
127 -10 0 -10 -60 -56 -102 -78 -81 -42 -198 -65 -337 -65 -118 0 -291 18
-291 30 0 3 24 21 52 40 28 19 67 56 86 82 19 27 35 48 37 48 1 0 70 -9 151
-20z m-6916 -207 c0 -5 -38 -28 -83 -52 l-83 -43 -40 20 c-87 45 -87 49 1 57
44 4 103 11 130 15 72 11 75 11 75 3z m6735 -54 c50 -5 97 -9 105 -9 21 -1
-13 -27 -67 -51 l-42 -20 -80 43 c-44 24 -81 47 -81 52 0 4 17 5 38 1 20 -4
78 -11 127 -16z m-3625 -584 c0 -47 -3 -57 -25 -71 -33 -21 -73 -11 -85 22
-11 29 -13 87 -3 97 3 4 30 7 60 7 l53 0 0 -55z m155 -12 c0 -51 -4 -67 -22
-85 -19 -18 -27 -20 -50 -12 -15 5 -33 21 -40 34 -14 27 -18 112 -6 124 4 4
32 6 63 4 l55 -3 0 -62z m155 2 c0 -57 -3 -69 -25 -90 -28 -29 -42 -31 -73 -9
-19 13 -22 24 -22 90 l0 74 60 0 60 0 0 -65z m119 59 c29 -6 31 -9 31 -52 0
-28 -6 -52 -17 -64 -23 -25 -68 -23 -87 4 -16 22 -22 99 -9 111 8 9 41 9 82 1z
m-579 -14 c0 -17 -39 -50 -60 -50 -24 0 -63 37 -55 50 8 13 115 13 115 0z
m729 4 c35 -7 41 -28 12 -44 -43 -23 -91 -6 -91 32 0 19 23 23 79 12z m-899
-49 c154 -103 306 -148 495 -147 189 0 334 42 482 137 65 43 124 58 137 36 7
-11 -81 -77 -164 -123 -129 -71 -310 -118 -455 -118 -78 0 -225 24 -295 48
-90 31 -203 91 -276 146 l-68 51 29 6 c17 4 34 7 39 8 4 0 39 -19 76 -44z
m-175 -111 c41 -31 75 -62 75 -69 0 -14 -40 -52 -41 -39 -1 5 0 19 1 31 1 13
-8 28 -24 38 -25 16 -26 16 -50 -12 -14 -15 -26 -31 -26 -34 0 -15 31 -31 50
-26 25 6 26 -8 3 -37 -23 -29 -37 -31 -38 -5 0 12 -7 26 -16 32 -13 8 -22 4
-43 -19 -14 -16 -26 -34 -26 -39 0 -21 59 -47 90 -40 17 4 30 4 30 0 0 -8 -42
-44 -53 -45 -4 0 -44 28 -90 63 -74 56 -79 62 -55 65 36 4 143 142 133 172 -3
11 -4 20 0 20 3 0 39 -25 80 -56z m1456 -7 c-4 -4 -19 -3 -33 4 -32 14 -68 -2
-68 -31 0 -28 14 -32 62 -19 63 17 86 14 114 -11 36 -35 33 -83 -9 -125 -48
-48 -82 -54 -115 -21 -19 19 -23 29 -15 37 8 8 18 6 36 -6 30 -20 62 -13 78
17 8 16 8 24 -4 35 -13 13 -23 14 -66 3 -68 -16 -98 -7 -118 34 -15 32 -15 36
4 68 10 18 37 43 59 55 l39 22 22 -27 c12 -15 18 -31 14 -35z m-1961 -23 c29
-41 100 -119 156 -173 204 -197 451 -327 734 -388 121 -26 449 -26 570 0 377
80 713 298 919 595 20 28 28 32 50 27 14 -4 28 -8 30 -10 7 -8 -91 -135 -166
-215 -259 -276 -572 -431 -962 -477 -393 -46 -808 81 -1136 348 -131 106 -330
343 -303 361 33 20 54 7 108 -68z m-240 -20 c47 -19 88 -38 92 -42 4 -4 10
-53 14 -108 l7 -102 61 -12 c104 -20 109 -27 26 -34 -521 -51 -1171 -172
-1664 -310 -71 -20 -130 -35 -133 -33 -10 11 275 176 494 286 285 142 548 248
853 342 85 26 157 48 160 48 3 1 44 -15 90 -35z m3037 -20 c263 -79 639 -233
883 -361 215 -113 508 -288 498 -298 -2 -2 -48 10 -103 26 -222 67 -680 179
-880 215 -313 58 -470 82 -719 114 -87 11 -161 22 -163 24 -3 2 29 10 71 16
54 9 77 17 80 29 3 9 8 57 11 108 l7 92 87 35 c47 19 91 35 98 36 6 0 65 -16
130 -36z m-997 -46 c0 -6 -7 -7 -15 -4 -8 3 -21 8 -27 11 -7 3 -20 0 -28 -5
-13 -8 -8 -23 30 -97 32 -63 50 -88 63 -87 32 3 17 -15 -33 -41 -58 -29 -79
-33 -59 -9 10 13 6 29 -31 105 -50 101 -62 106 -85 35 -7 -23 -21 -12 -30 24
-5 23 1 28 87 72 93 46 93 47 111 26 9 -11 17 -25 17 -30z m-1125 5 c54 -27
69 -43 40 -43 -11 0 -13 -8 -8 -32 8 -42 6 -42 36 -18 15 12 24 27 20 35 -7
19 -2 19 42 -2 38 -18 46 -33 16 -33 -10 0 -39 -12 -65 -26 -37 -20 -45 -30
-42 -47 3 -12 7 -42 11 -67 3 -24 13 -52 22 -62 9 -10 11 -18 6 -18 -20 0
-123 52 -123 62 0 5 7 8 15 4 11 -4 15 2 15 27 0 51 -11 59 -48 35 -24 -15
-31 -25 -27 -39 8 -24 8 -24 -46 3 l-44 21 35 11 c19 6 53 21 76 33 l41 22
-12 63 c-7 35 -16 71 -20 81 -9 22 -5 22 60 -10z m875 -93 c23 -23 26 -57 6
-85 -13 -19 -10 -24 39 -65 30 -25 53 -49 51 -55 -1 -5 -18 -11 -37 -13 -29
-2 -40 4 -74 38 -49 50 -69 53 -60 8 9 -42 13 -48 31 -48 34 0 5 -24 -45 -37
-53 -13 -79 -10 -52 7 11 6 12 17 2 56 -29 115 -43 154 -57 154 -34 0 -9 18
54 37 87 27 117 28 142 3z m-562 -11 c30 -6 62 -19 73 -30 27 -27 24 -75 -6
-105 -21 -21 -33 -25 -72 -23 -43 3 -48 1 -54 -21 -11 -41 -10 -47 12 -53 38
-10 11 -25 -28 -17 -21 5 -50 11 -65 15 -32 6 -37 20 -10 27 27 7 59 188 37
204 -8 6 -15 15 -15 19 0 7 26 4 128 -16z m320 -46 c4 -37 -7 -43 -26 -13 -8
13 -23 20 -41 20 -36 0 -39 -5 -34 -52 6 -42 29 -51 57 -23 22 23 26 19 26
-25 0 -40 -13 -53 -24 -25 -3 8 -17 15 -31 15 -23 0 -25 -3 -25 -45 0 -31 5
-47 15 -51 23 -9 64 4 83 26 23 28 29 25 24 -14 l-4 -33 -100 -6 c-108 -7
-130 -3 -102 18 16 11 18 26 15 106 -1 67 -6 97 -17 105 -24 19 -16 23 59 27
122 6 122 6 125 -30z"/>
<path d="M42990 4024 c-1204 -51 -2383 -416 -3375 -1047 -203 -129 -267 -177
-261 -193 3 -8 110 -159 237 -337 359 -498 410 -567 420 -567 5 0 44 24 87 53
222 154 621 373 892 490 603 261 1216 409 1885 457 180 13 590 13 770 0 976
-69 1861 -359 2665 -874 74 -47 161 -105 192 -127 46 -33 60 -39 72 -30 8 7
71 89 140 184 69 95 213 291 321 437 107 146 195 270 195 276 0 11 -29 33
-155 119 -930 634 -2038 1027 -3202 1135 -205 19 -688 32 -883 24z m914 -73
c969 -101 1846 -372 2642 -817 268 -150 626 -382 619 -401 -2 -6 -129 -182
-282 -390 -153 -208 -289 -392 -301 -410 l-23 -32 -112 74 c-401 267 -856 494
-1290 646 -528 184 -1056 284 -1640 310 -904 41 -1787 -126 -2614 -495 -237
-105 -543 -274 -766 -420 -112 -74 -119 -77 -132 -60 -8 11 -57 78 -108 149
-51 72 -180 251 -286 398 -106 147 -191 274 -188 281 3 7 57 47 120 89 426
286 1000 567 1502 738 533 181 1020 286 1570 339 292 28 296 28 715 25 292 -3
419 -8 574 -24z"/>
<path d="M42497 3825 c-133 -34 -239 -111 -288 -212 -21 -42 -24 -62 -24 -163
0 -131 14 -176 81 -249 79 -88 177 -125 334 -124 91 0 118 5 200 32 52 18 117
45 145 61 84 50 80 45 63 72 -17 27 -32 194 -17 203 5 4 9 16 9 27 0 21 -2 21
-164 14 -112 -5 -166 -4 -171 3 -3 6 -15 11 -26 11 -21 0 -23 -16 -13 -119 7
-63 15 -72 44 -46 21 19 180 34 180 18 0 -16 -26 -23 -84 -23 -52 0 -76 -12
-76 -37 0 -18 25 -16 40 2 8 10 31 15 67 15 50 0 54 -2 51 -22 -7 -50 -187
-108 -288 -93 -119 18 -169 72 -178 193 -8 127 32 198 145 254 61 30 73 32
167 32 103 0 146 -12 146 -39 0 -8 7 -15 15 -15 21 0 101 160 85 170 -7 4 -20
5 -30 3 -9 -3 -48 5 -86 17 -90 28 -246 35 -327 15z m273 -129 l35 -15 -50 7
c-181 26 -321 -21 -379 -127 -34 -63 -36 -172 -6 -240 16 -35 17 -41 4 -31
-23 20 -40 59 -54 123 -28 136 65 266 213 297 60 13 196 5 237 -14z"/>
<path d="M43792 3824 c-108 -29 -163 -76 -187 -159 -18 -61 -13 -106 16 -154
38 -62 114 -92 299 -116 135 -18 212 -38 231 -62 12 -15 12 -16 -3 -10 -41 15
-101 27 -213 42 -66 9 -145 25 -175 35 -30 10 -56 17 -58 15 -2 -1 17 -12 41
-24 48 -23 143 -44 279 -61 115 -14 148 -26 148 -54 0 -26 -33 -60 -73 -75
-42 -16 -214 -13 -282 5 -68 17 -106 38 -102 57 1 6 -5 12 -13 12 -25 1 -42
16 -37 35 5 20 -21 37 -33 23 -24 -27 -97 -152 -93 -157 4 -3 13 -6 22 -6 9 0
47 -15 86 -34 126 -62 337 -91 458 -62 86 20 136 46 175 90 39 44 56 104 47
166 -17 126 -99 170 -378 205 -71 9 -135 19 -143 22 -18 7 -18 23 2 52 26 37
74 51 172 51 97 0 173 -18 239 -56 l42 -25 47 71 c26 39 45 72 43 74 -2 3 -22
11 -44 19 -22 8 -68 27 -103 42 -124 52 -300 69 -410 39z m231 -114 c77 -11
157 -42 183 -71 15 -17 10 -16 -39 6 -77 36 -217 53 -294 37 -60 -12 -90 -33
-105 -71 -13 -36 -35 -11 -22 25 25 71 121 96 277 74z"/>
<path d="M44407 3773 c-3 -5 -8 -27 -12 -50 -4 -24 -12 -43 -18 -43 -16 0 -99
-128 -92 -140 11 -17 22 -11 50 30 21 30 33 39 47 34 10 -3 25 0 33 6 11 9 39
7 122 -10 137 -27 139 -28 125 -42 -9 -9 -35 -7 -105 7 -52 10 -101 15 -110
12 -21 -8 -22 -33 -2 -41 8 -3 15 -1 15 4 0 6 12 10 28 10 32 -1 151 -25 158
-33 3 -3 -19 -97 -49 -209 -31 -112 -60 -222 -66 -244 -7 -28 -18 -43 -31 -47
-11 -3 -20 -12 -20 -20 0 -16 196 -71 205 -57 3 5 13 6 23 4 14 -4 22 15 51
123 88 336 108 398 128 395 10 -2 55 -12 101 -24 66 -16 85 -18 97 -8 16 13
68 170 60 179 -3 2 -18 0 -33 -5 -21 -7 -58 -1 -167 27 -77 20 -216 54 -310
74 -113 25 -177 43 -191 56 -22 21 -30 23 -37 12z m536 -269 c56 -14 106 -30
111 -35 22 -21 -10 -20 -106 4 -56 14 -103 25 -104 24 -1 -1 -34 -119 -73
-261 -39 -143 -74 -262 -76 -265 -3 -2 -11 1 -17 7 -12 12 -8 27 72 317 15 55
36 130 45 168 12 43 23 67 32 67 8 0 60 -12 116 -26z"/>
<path d="M42976 3751 c-24 -38 -82 -162 -78 -166 16 -16 33 4 67 76 25 54 34
84 27 91 -6 6 -12 6 -16 -1z"/>
<path d="M41880 3714 c-36 -8 -69 -16 -74 -17 -5 -2 1 -12 13 -24 16 -15 31
-58 56 -164 19 -79 39 -161 44 -181 5 -23 5 -38 0 -38 -5 0 -98 59 -206 131
-108 73 -205 134 -215 137 -50 13 2 -28 211 -167 203 -134 263 -181 231 -181
-5 0 -124 76 -263 169 -191 127 -256 175 -261 194 l-6 24 -100 -31 c-96 -30
-117 -45 -86 -63 8 -5 60 -146 115 -314 77 -234 100 -314 95 -338 -4 -17 -3
-31 1 -31 23 0 152 45 161 56 6 8 17 14 24 14 7 0 10 6 8 13 -31 82 -139 419
-136 422 2 2 109 -68 238 -156 150 -101 237 -167 240 -180 3 -11 7 -21 10 -21
3 -1 40 4 83 12 79 13 107 33 74 51 -20 12 -24 24 -103 358 -48 204 -64 289
-57 300 13 21 5 41 -15 40 -9 -1 -46 -7 -82 -15z m-438 -355 c23 -39 154 -450
146 -455 -5 -4 -13 -2 -17 2 -8 9 -161 456 -161 469 0 11 23 0 32 -16z"/>
<path d="M42025 3676 c-19 -14 -19 -17 12 -153 79 -339 116 -489 125 -500 24
-30 24 -7 1 90 -13 56 -31 134 -40 172 -8 39 -21 95 -28 125 -43 181 -52 231
-44 236 11 7 12 44 1 44 -5 0 -17 -6 -27 -14z"/>
<path d="M43242 3550 c-33 -31 -38 -67 -15 -98 41 -55 119 -51 143 8 32 77
-67 146 -128 90z"/>
<path d="M45160 3514 c-6 -14 -10 -31 -10 -39 0 -8 -22 -39 -49 -70 -139 -158
-155 -355 -42 -504 14 -18 26 -40 27 -48 6 -42 131 -130 231 -164 52 -18 90
-24 163 -24 86 0 101 3 162 32 36 17 84 49 106 71 81 81 135 241 117 347 l-9
50 -6 -86 c-5 -67 -14 -101 -39 -155 -82 -176 -246 -259 -436 -221 -98 20
-208 73 -255 123 -23 24 -28 33 -14 26 11 -6 26 -17 32 -25 7 -8 43 -28 81
-46 216 -99 440 -54 540 109 79 128 93 279 37 389 -51 99 -157 178 -291 217
-75 21 -204 21 -264 0 -56 -20 -54 -21 -46 14 5 24 3 30 -9 30 -9 0 -21 -12
-26 -26z m372 -157 c29 -14 69 -43 88 -63 l35 -37 -52 36 c-71 48 -115 61
-198 61 -82 0 -134 -22 -185 -80 -49 -57 -70 -110 -70 -184 0 -47 -3 -61 -11
-53 -20 20 -7 152 21 207 28 56 94 118 142 134 56 19 169 9 230 -21z m31 -64
c31 -14 73 -43 92 -64 31 -35 35 -45 35 -94 0 -101 -57 -204 -139 -253 -40
-23 -57 -27 -126 -27 -67 0 -89 4 -135 27 -79 39 -121 85 -127 141 -10 86 44
205 119 260 68 51 179 55 281 10z"/>
<path d="M43400 3474 c0 -51 -61 -96 -107 -80 -15 5 -15 4 1 -9 63 -48 159 39
116 105 -7 11 -10 8 -10 -16z"/>
<path d="M40963 3451 c-81 -28 -103 -40 -103 -55 0 -11 5 -16 13 -13 8 3 19 2
25 -2 6 -3 63 -143 126 -310 110 -288 115 -305 99 -323 -11 -12 -13 -22 -7
-28 13 -13 204 51 217 72 8 11 -18 90 -96 302 -59 157 -107 292 -107 300 0 8
5 18 10 21 13 8 13 35 0 35 -6 0 -20 -8 -31 -19 -20 -18 -20 -19 91 -316 61
-163 109 -300 106 -303 -13 -13 -35 29 -85 163 -29 77 -80 211 -114 299 -56
148 -59 160 -43 172 12 8 15 17 9 27 -7 12 -25 8 -110 -22z"/>
<path d="M43022 3433 c-11 -22 5 -194 18 -207 19 -19 9 -32 -53 -69 -141 -82
-324 -122 -462 -99 -70 12 -83 8 -28 -8 120 -34 296 -19 425 38 149 65 175 87
143 119 -15 14 -17 33 -13 130 3 87 1 113 -9 113 -7 0 -16 -8 -21 -17z"/>
<path d="M40673 3338 c-75 -31 -83 -40 -59 -67 14 -16 92 -358 83 -367 -9 -9
-202 219 -207 245 -5 24 -10 27 -40 23 -27 -5 2 -46 130 -187 77 -85 140 -162
140 -170 0 -9 -5 -13 -11 -10 -6 4 -80 84 -165 179 -102 113 -154 179 -154
194 0 12 -4 22 -10 22 -15 0 -160 -74 -160 -81 0 -4 8 -15 17 -24 11 -11 26
-70 44 -169 15 -83 30 -164 33 -179 8 -39 -1 -31 -104 89 -61 71 -90 112 -90
129 0 29 -12 32 -35 9 -17 -18 -27 -4 161 -224 77 -91 107 -140 85 -140 -5 0
-19 12 -31 28 -12 15 -79 94 -148 175 -77 91 -127 157 -127 170 0 31 -20 27
-104 -22 -70 -41 -78 -55 -41 -69 31 -12 449 -504 450 -529 0 -13 5 -23 11
-23 15 0 179 89 179 97 0 4 -7 14 -15 23 -8 9 -31 109 -55 237 -46 254 -46
253 -24 231 9 -8 22 -49 29 -89 8 -41 26 -141 40 -224 15 -82 33 -157 41 -166
8 -8 14 -20 14 -25 0 -5 -34 -27 -75 -49 -41 -22 -75 -42 -75 -46 0 -19 21
-14 89 23 102 55 106 59 83 86 -12 13 -24 52 -32 99 -6 43 -21 124 -32 181
-11 56 -18 109 -16 118 4 20 238 -241 238 -266 0 -9 3 -19 6 -22 8 -9 177 67
182 82 3 7 -2 18 -10 24 -16 12 -138 607 -138 675 0 49 -2 49 -97 9z"/>
<path d="M44342 3339 c6 -16 8 -57 6 -90 -8 -115 -93 -187 -248 -210 -116 -17
-300 6 -407 52 -55 24 -56 16 -1 -12 81 -41 168 -60 304 -66 116 -5 140 -3
203 16 43 13 85 34 108 54 70 62 92 160 53 245 -22 49 -34 56 -18 11z"/>
<path d="M40809 3317 c-8 -17 1 -77 36 -257 25 -129 53 -273 62 -320 10 -50
24 -92 35 -103 10 -10 18 -20 18 -23 0 -3 -35 -21 -77 -41 -90 -41 -87 -39
-79 -52 8 -12 186 67 186 82 0 6 -7 18 -15 27 -8 9 -26 72 -39 141 -14 68 -41
207 -61 308 -20 102 -35 196 -35 210 4 57 -11 71 -31 28z"/>
<path d="M46037 3234 c-3 -4 -2 -14 3 -23 13 -26 -277 -581 -314 -599 -14 -7
-26 -17 -26 -22 0 -13 172 -98 187 -93 15 5 25 -11 17 -31 -5 -13 -17 -10 -75
19 -73 37 -89 41 -89 24 0 -13 168 -91 181 -84 5 4 6 17 3 29 -4 17 12 56 56
137 33 63 64 117 69 122 4 4 79 -27 167 -70 163 -79 229 -96 299 -79 69 17
146 129 144 208 l-1 43 -9 -43 c-15 -76 -86 -163 -145 -178 -67 -17 -129 1
-298 85 -90 46 -169 80 -174 77 -6 -3 -36 -55 -67 -114 -65 -122 -72 -132 -81
-109 -5 15 101 235 126 261 5 5 79 -27 180 -78 223 -113 290 -122 369 -50 108
97 102 244 -12 323 -55 37 -471 251 -490 251 -7 0 -17 -3 -20 -6z m190 -209
c114 -52 252 -134 263 -156 12 -22 3 -25 -19 -5 -19 17 -257 141 -288 151 -19
5 -26 -2 -53 -54 -21 -42 -34 -59 -44 -55 -12 5 -8 20 22 80 20 41 38 74 40
74 2 0 37 -16 79 -35z m85 -101 c61 -31 129 -67 150 -80 38 -24 38 -24 23 -55
-19 -36 -49 -49 -87 -38 -43 12 -258 129 -258 140 0 18 40 89 50 89 6 0 60
-25 122 -56z"/>
<path d="M43592 3128 c3 -7 15 -14 28 -14 23 -1 23 -1 5 12 -23 17 -38 18 -33
2z"/>
<path d="M42187 2985 c-3 -7 -36 -18 -76 -25 -65 -11 -80 -18 -66 -32 3 -3 42
2 88 11 58 12 83 21 85 33 4 19 -24 32 -31 13z"/>
<path d="M44530 2922 c0 -8 88 -32 173 -48 35 -6 39 -5 35 12 -3 13 -11 18
-27 16 -12 -1 -49 5 -81 13 -65 17 -100 19 -100 7z"/>
<path d="M41637 2858 c-2 -7 -34 -21 -71 -32 -43 -12 -66 -24 -66 -33 0 -9 6
-13 14 -10 7 3 46 15 85 27 55 16 71 25 69 37 -4 21 -24 28 -31 11z"/>
<path d="M41370 2771 c0 -5 -37 -22 -82 -36 -84 -28 -107 -40 -96 -51 12 -11
203 63 206 80 2 9 -3 16 -12 16 -9 0 -16 -4 -16 -9z"/>
<path d="M46476 2184 c-39 -39 -26 -113 23 -134 58 -23 111 14 111 77 0 33
-28 73 -51 73 -7 0 0 -9 15 -21 19 -15 26 -30 26 -54 0 -24 -7 -39 -26 -54
-35 -28 -59 -26 -91 5 -20 20 -24 31 -19 57 3 18 16 40 27 50 12 9 17 17 11
17 -6 0 -18 -7 -26 -16z"/>
<path d="M46500 2125 c0 -25 5 -45 10 -45 6 0 10 7 10 15 0 8 4 15 9 15 5 0
11 -7 15 -15 3 -8 10 -15 16 -15 6 0 8 5 4 12 -4 7 -7 27 -6 45 2 31 0 33 -28
33 -29 0 -30 -2 -30 -45z m41 12 c-13 -13 -26 -3 -16 12 3 6 11 8 17 5 6 -4 6
-10 -1 -17z"/>
<path d="M43565 2333 c8 -48 20 -61 43 -47 39 25 21 84 -25 84 -24 0 -25 -2
-18 -37z"/>
<path d="M43077 2353 c-3 -5 -8 -29 -11 -55 -7 -46 -6 -48 18 -48 53 0 76 65
34 94 -25 18 -35 20 -41 9z"/>
<path d="M28894 4863 c-12 -2 -29 -12 -37 -21 -17 -19 -58 -150 -122 -387 -24
-88 -63 -230 -88 -315 -91 -309 -131 -478 -168 -714 -11 -70 -19 -89 -68 -160
-67 -98 -170 -222 -244 -294 -62 -62 -93 -66 -116 -18 -11 24 -12 42 -2 100 7
39 17 85 22 101 5 17 31 136 59 265 27 129 57 267 65 305 21 93 22 243 2 281
-37 71 -146 134 -232 134 -71 0 -126 -29 -212 -112 -93 -91 -174 -202 -244
-337 l-54 -105 -6 120 c-8 165 -43 275 -105 323 -80 63 -212 50 -328 -32 -36
-26 -141 -167 -173 -232 -28 -59 -68 -112 -59 -80 24 91 56 279 56 326 0 69
-16 91 -77 108 -96 27 -116 9 -144 -129 -11 -58 -29 -138 -39 -177 -10 -40
-36 -173 -56 -295 -35 -209 -39 -226 -73 -278 -57 -88 -189 -256 -222 -284
-114 -96 -129 66 -53 566 30 197 26 230 -32 254 -79 33 -179 -37 -268 -188
-177 -297 -371 -548 -424 -548 -106 0 6 475 173 736 116 182 233 227 359 140
56 -39 95 -45 120 -20 35 34 6 114 -62 176 -58 52 -99 63 -237 63 -108 0 -125
-3 -175 -26 -30 -15 -77 -46 -104 -70 -77 -68 -176 -227 -236 -379 -69 -177
-84 -247 -85 -405 0 -146 12 -188 81 -272 44 -54 80 -73 138 -73 125 0 233 93
396 339 33 50 61 91 63 91 1 0 2 -73 2 -163 l0 -162 33 -67 c72 -148 206 -207
313 -140 52 34 100 86 158 170 57 84 64 86 55 15 -11 -100 32 -148 133 -148
62 0 84 28 137 175 88 248 115 318 171 450 122 287 229 456 302 475 48 12 58
-12 57 -133 -1 -132 -21 -236 -144 -752 -45 -192 -46 -226 -3 -260 52 -41 190
-14 228 44 8 12 28 65 43 117 57 186 169 474 238 611 82 162 232 362 281 374
52 14 67 -58 38 -181 -8 -33 -30 -123 -48 -200 -46 -188 -77 -375 -77 -460 0
-80 21 -178 50 -234 40 -80 136 -129 216 -111 71 16 172 106 301 268 41 51 78
90 82 88 4 -3 8 -20 9 -37 3 -127 51 -176 130 -135 54 28 72 59 103 182 48
193 79 265 175 405 113 166 197 262 302 348 67 54 105 70 131 54 25 -16 24
-55 -4 -191 -74 -357 -182 -589 -355 -763 -115 -116 -187 -153 -291 -148 -83
5 -101 -8 -83 -58 22 -62 117 -98 239 -90 278 20 528 263 650 634 53 161 54
164 70 255 51 286 -40 469 -241 486 -68 6 -174 -26 -232 -69 -52 -38 -153
-160 -213 -259 -24 -38 -46 -70 -50 -70 -7 0 26 135 64 260 14 47 37 132 52
190 15 58 38 139 50 180 13 41 42 157 64 258 35 155 40 189 31 221 -17 64 -88
106 -156 94z"/>
<path d="M25066 4760 c-37 -12 -85 -56 -102 -97 -17 -39 -18 -123 -3 -157 18
-40 95 -61 162 -46 104 25 147 73 147 167 0 65 -17 94 -70 121 -46 23 -85 26
-134 12z"/>
<path d="M10900 4686 c0 -2 7 -23 16 -47 34 -97 8 -214 -64 -284 -55 -53 -38
-95 38 -95 88 0 183 77 232 187 22 50 36 171 24 217 l-6 26 -120 0 c-66 0
-120 -2 -120 -4z"/>
<path d="M6492 4600 c-316 -45 -600 -196 -847 -451 -253 -262 -394 -517 -542
-978 -7 -21 -66 -43 -523 -200 l-515 -177 -3 -95 c-2 -52 2 -386 8 -743 11
-633 11 -650 -8 -675 -20 -27 -49 -36 -86 -27 -15 4 -170 202 -470 600 l-448
594 -41 -14 c-23 -9 -321 -112 -662 -229 -341 -118 -638 -220 -660 -228 l-39
-14 83 -31 c46 -18 102 -32 125 -32 29 0 223 62 617 199 528 182 575 197 590
182 9 -9 198 -257 419 -551 221 -294 421 -554 445 -577 67 -65 152 -68 224 -7
63 53 62 33 48 819 -7 391 -10 714 -5 719 7 8 860 306 864 302 1 0 -1 -48 -5
-106 -18 -304 42 -513 189 -661 188 -188 561 -257 886 -164 110 32 272 108
372 178 103 70 237 205 300 301 30 46 53 73 56 65 2 -8 9 -36 16 -63 14 -61
32 -96 72 -141 51 -58 100 -78 205 -83 80 -4 105 -1 176 21 79 25 228 106 274
148 27 26 39 19 47 -26 5 -23 22 -51 46 -75 53 -53 125 -74 234 -68 127 7 227
61 379 207 37 35 67 62 67 58 0 -3 -20 -63 -45 -133 -25 -69 -45 -128 -45
-130 0 -2 96 -4 213 -4 l212 0 184 518 c102 284 194 540 206 567 32 74 114
159 191 196 58 29 70 31 137 27 40 -3 89 -12 107 -22 27 -13 36 -14 45 -4 7 7
68 80 135 162 l124 148 -25 19 c-43 34 -125 52 -208 46 -107 -8 -214 -63 -315
-161 -42 -40 -76 -70 -76 -66 0 4 16 47 35 96 19 49 35 90 35 91 0 2 -96 3
-213 3 l-214 0 -103 -292 c-133 -377 -158 -433 -305 -663 -144 -226 -349 -455
-407 -455 -47 0 -57 -31 313 963 l28 77 -203 0 -204 0 -30 -77 c-16 -43 -81
-219 -143 -392 -112 -309 -115 -316 -167 -373 -93 -101 -239 -198 -297 -198
-14 0 -37 11 -50 25 -21 20 -25 34 -25 85 0 181 123 529 264 744 66 103 178
222 254 273 101 66 171 87 297 86 66 0 138 -7 179 -17 38 -9 73 -13 77 -9 4 5
23 49 42 98 l35 90 -51 23 c-151 69 -387 77 -597 21 -110 -29 -263 -108 -367
-188 -193 -149 -348 -364 -456 -632 -82 -204 -233 -447 -350 -563 -198 -197
-437 -305 -651 -294 -261 14 -376 179 -376 539 0 159 21 272 89 478 179 538
498 978 801 1102 44 18 75 23 156 23 92 1 104 -1 140 -25 60 -40 97 -115 97
-198 0 -78 -22 -134 -76 -199 -21 -24 -37 -46 -37 -48 0 -2 89 -4 199 -4 l199
0 42 41 c23 22 54 66 68 97 23 48 27 71 27 142 0 74 -4 92 -29 140 -55 108
-180 195 -336 235 -76 19 -323 28 -418 15z"/>
<path d="M13500 4589 c-677 -45 -1226 -489 -1198 -968 6 -101 46 -187 117
-255 l50 -46 137 0 c126 0 136 1 129 18 -44 109 -48 129 -49 247 0 221 69 394
223 557 127 135 283 221 462 258 98 20 334 37 342 24 4 -9 -511 -1362 -531
-1395 -8 -12 -34 -18 -104 -23 -51 -4 -155 -16 -230 -26 -453 -64 -754 -186
-881 -359 -60 -81 -81 -151 -75 -255 3 -65 10 -91 33 -134 92 -170 348 -283
606 -268 431 25 784 303 1024 808 l60 126 70 17 c97 24 212 67 292 109 37 20
68 35 69 33 2 -2 -153 -439 -240 -680 l-25 -67 215 2 216 3 197 551 c176 492
201 558 240 608 54 70 146 132 207 142 61 9 144 0 183 -20 l30 -16 131 156
c72 86 129 162 127 168 -8 26 -88 58 -161 63 -137 10 -252 -41 -384 -170 l-73
-72 15 40 c7 22 23 64 35 93 12 29 21 57 21 63 0 6 -78 8 -212 7 l-211 -3 -99
-280 -99 -280 -52 -48 c-95 -89 -212 -159 -345 -207 -34 -13 -65 -20 -68 -17
-4 3 121 336 276 739 156 403 285 741 288 751 4 16 -16 17 -319 16 -178 -1
-376 -5 -439 -10z m-405 -1781 c-134 -321 -287 -543 -425 -614 -49 -25 -66
-29 -146 -29 -83 0 -94 2 -139 30 -137 84 -135 304 2 425 67 58 135 95 254
134 115 39 328 80 431 85 l37 1 -14 -32z"/>
<path d="M10141 4403 c-179 -461 -606 -1592 -631 -1668 -69 -213 -47 -333 74
-398 35 -19 56 -22 156 -22 104 0 122 3 184 29 103 44 242 139 322 222 39 41
74 74 78 74 3 0 6 -10 6 -23 0 -38 49 -124 98 -172 194 -192 608 -174 827 35
110 107 155 219 155 391 0 141 -28 251 -113 439 -36 80 -70 164 -76 185 -17
61 -14 146 6 175 53 77 133 86 224 24 l49 -32 95 108 c52 59 95 111 95 114 0
10 -104 59 -155 72 -66 18 -215 17 -293 -1 -148 -35 -236 -104 -357 -280 -249
-363 -539 -759 -663 -907 -102 -122 -277 -248 -343 -248 -24 0 -29 4 -29 24 0
17 530 1424 715 1899 7 16 -7 17 -198 17 l-204 0 -22 -57z m817 -1253 c50
-128 66 -219 59 -321 -6 -94 -46 -186 -109 -249 -57 -57 -109 -80 -182 -80
-175 0 -287 176 -212 336 13 28 61 102 108 165 47 63 109 150 138 194 29 44
69 102 88 129 l36 49 17 -59 c9 -33 35 -106 57 -164z"/>
<path d="M1590 4324 c21 -58 53 -129 71 -159 43 -68 702 -944 711 -945 3 0 16
16 28 35 l21 34 -428 570 c-235 314 -431 570 -434 570 -4 1 11 -46 31 -105z"/>
<path d="M15594 4401 c-104 -47 -131 -173 -57 -262 76 -90 228 -73 281 31 28
56 28 105 -1 160 -42 80 -137 110 -223 71z m146 -39 c106 -77 55 -245 -74
-245 -75 0 -126 53 -126 133 0 112 113 175 200 112z"/>
<path d="M15613 4333 c-9 -3 -13 -31 -13 -89 0 -77 2 -84 20 -84 16 0 20 7 20
35 0 29 4 35 21 35 13 0 25 -11 35 -35 9 -24 21 -35 34 -35 17 0 19 4 14 28
-4 15 -13 35 -22 44 -13 16 -13 18 2 24 23 9 20 50 -6 68 -21 15 -79 20 -105
9z m76 -32 c21 -13 5 -41 -24 -41 -20 0 -25 5 -25 25 0 26 22 33 49 16z"/>
<path d="M24966 4169 c-59 -16 -88 -70 -125 -232 -10 -45 -42 -172 -71 -282
-87 -333 -90 -347 -111 -443 -38 -174 -139 -511 -193 -648 -90 -223 -188 -361
-291 -410 -89 -42 -223 -30 -348 32 -71 35 -92 27 -91 -34 3 -139 256 -252
479 -213 236 41 392 209 521 562 51 139 164 509 195 639 11 47 35 146 54 220
47 187 135 641 135 695 0 78 -76 135 -154 114z"/>
<path d="M30140 4045 c-149 -41 -277 -136 -367 -271 -57 -87 -131 -269 -161
-399 -22 -93 -26 -134 -26 -265 -1 -150 0 -157 26 -207 46 -86 113 -127 210
-126 125 0 219 71 323 241 28 46 55 89 60 97 7 11 10 -11 10 -72 0 -101 20
-156 74 -211 115 -114 310 -99 446 36 25 24 45 50 45 58 0 8 5 14 10 14 14 0
12 11 -5 34 -22 30 -65 24 -124 -17 -43 -30 -62 -37 -101 -37 -97 0 -137 69
-127 215 7 98 36 207 116 435 34 96 61 190 61 208 0 46 -46 92 -92 92 -39 0
-104 -35 -129 -70 -10 -14 -52 -95 -92 -180 -171 -365 -335 -658 -400 -718
-61 -57 -110 6 -109 142 0 106 24 203 85 356 73 184 120 263 208 352 63 63 93
84 170 121 52 25 119 52 150 61 31 9 62 22 68 30 20 24 9 59 -24 76 -43 21
-234 24 -305 5z"/>
<path d="M3030 3929 c-51 -23 -100 -66 -100 -87 0 -15 5 -15 80 13 25 10 76
18 113 19 56 1 71 5 79 20 9 16 7 23 -12 38 -30 24 -103 23 -160 -3z"/>
<path d="M35987 3943 c-4 -3 -7 -71 -7 -150 l0 -143 113 0 c61 0 130 -5 152
-11 41 -12 105 -69 105 -95 0 -36 19 2 40 78 28 102 30 209 6 256 -33 63 -61
72 -242 72 -88 0 -164 -3 -167 -7z"/>
<path d="M33855 3861 c-6 -6 -8 -61 -5 -133 l5 -123 40 -3 c22 -2 43 -9 47
-15 12 -19 10 -925 -2 -948 -9 -15 -22 -19 -65 -19 l-55 0 0 -124 c0 -104 3
-125 16 -130 20 -8 358 -8 378 0 11 4 16 19 16 49 0 24 4 46 9 49 5 3 27 -9
50 -28 69 -58 119 -71 261 -71 160 1 218 21 300 104 102 103 150 237 150 418
-1 243 -102 409 -295 483 -47 18 -81 23 -155 23 -106 1 -153 -14 -240 -78 -26
-19 -50 -35 -54 -35 -3 0 -6 130 -6 289 0 254 -2 290 -16 295 -26 10 -369 7
-379 -3z m701 -760 c74 -33 114 -117 114 -235 0 -136 -69 -222 -187 -233 -134
-12 -217 85 -216 252 0 106 44 188 118 221 43 19 123 17 171 -5z"/>
<path d="M31844 3847 c-2 -7 -3 -62 -2 -123 l3 -109 67 -5 c36 -3 70 -9 74
-13 5 -4 3 -20 -3 -35 -6 -15 -86 -223 -178 -462 -91 -239 -173 -445 -181
-457 -12 -19 -24 -23 -64 -23 l-50 0 0 -118 c0 -78 4 -122 12 -130 14 -14 514
-17 536 -4 9 7 12 39 10 128 l-3 119 -50 3 c-83 4 -95 9 -95 40 0 15 13 52 28
82 l27 55 215 3 c163 2 220 -1 231 -10 9 -7 26 -41 39 -76 29 -79 21 -90 -63
-94 l-62 -3 -3 -119 c-2 -89 1 -121 10 -128 15 -9 568 -11 592 -2 13 5 16 25
16 114 0 60 -3 115 -6 124 -4 12 -20 16 -54 16 -31 0 -55 6 -68 18 -12 10 -99
231 -232 587 -116 314 -219 578 -228 589 -39 42 -61 46 -292 46 -173 0 -222
-3 -226 -13z m394 -524 c80 -209 103 -276 98 -289 -4 -11 -33 -14 -136 -14
-118 0 -130 2 -130 18 0 18 102 332 115 352 13 22 25 8 53 -67z"/>
<path d="M3756 3745 c-22 -22 -20 -31 10 -52 47 -32 125 -106 142 -135 25 -42
46 -37 39 9 -18 110 -143 226 -191 178z"/>
<path d="M2945 3664 c-38 -20 -55 -42 -55 -70 0 -27 17 -34 81 -34 54 0 105
-18 146 -50 32 -25 55 -25 76 -2 39 43 8 115 -66 151 -52 25 -138 27 -182 5z"/>
<path d="M3573 3471 c-27 -17 -33 -27 -33 -56 0 -43 20 -55 90 -55 48 0 105
-22 163 -63 45 -31 73 43 38 100 -50 81 -186 119 -258 74z"/>
<path d="M33713 3386 c-121 -30 -223 -105 -280 -206 -15 -28 -31 -50 -35 -50
-5 0 -8 53 -8 119 0 89 -3 121 -14 130 -9 8 -68 11 -187 9 l-174 -3 -3 -127
-3 -128 39 0 c21 0 43 -5 50 -12 9 -9 12 -77 12 -243 0 -166 -3 -234 -12 -243
-7 -7 -29 -12 -50 -12 l-38 0 0 -124 c0 -104 3 -125 16 -130 9 -3 125 -6 259
-6 195 0 245 3 254 14 8 9 11 54 9 132 l-3 119 -50 5 -50 5 -3 114 c-2 106 -1
118 23 167 47 97 161 156 294 154 42 -1 82 -1 89 -1 10 1 12 37 10 164 l-3
162 -45 2 c-25 1 -68 -4 -97 -11z"/>
<path d="M36560 3387 c-184 -42 -298 -225 -249 -400 14 -53 72 -113 138 -146
56 -28 90 -38 214 -66 122 -27 192 -79 168 -124 -20 -36 -53 -51 -111 -51
-106 0 -133 15 -230 128 -18 20 -28 22 -118 22 -73 0 -103 -4 -111 -14 -8 -9
-11 -68 -9 -187 l3 -174 108 -3 107 -3 0 40 c0 46 14 60 38 37 10 -8 42 -26
72 -40 121 -55 315 -61 413 -12 121 59 168 125 175 246 5 84 -7 124 -53 178
-38 45 -78 64 -262 121 -192 59 -218 71 -232 111 -15 43 1 78 44 95 94 40 221
-15 245 -106 l11 -40 117 3 117 3 0 185 0 185 -97 3 -98 3 0 -39 c0 -21 -3
-41 -6 -45 -4 -3 -23 7 -43 23 -60 48 -123 71 -214 75 -47 3 -106 -1 -137 -8z"/>
<path d="M35032 3378 c-17 -17 -16 -218 1 -241 7 -9 30 -17 56 -19 l43 -3 32
-90 c18 -49 72 -207 121 -350 58 -169 97 -268 112 -282 17 -18 34 -23 70 -23
26 0 58 -3 70 -6 28 -8 24 -31 -21 -124 -27 -57 -36 -67 -71 -79 -55 -19 -104
-8 -160 34 -25 19 -51 35 -58 35 -7 0 -43 -41 -82 -91 -79 -105 -80 -103 11
-164 86 -59 159 -80 274 -80 82 0 103 4 152 27 73 34 136 98 175 179 26 53
321 853 362 981 13 38 19 41 101 50 25 3 25 3 28 122 2 89 -1 121 -10 128 -7
4 -128 8 -268 8 -140 0 -261 -4 -268 -8 -9 -7 -12 -39 -10 -128 l3 -119 42 -6
c24 -3 46 -8 49 -12 4 -4 -26 -111 -67 -239 -71 -223 -76 -233 -101 -236 -18
-2 -30 3 -36 15 -10 18 -122 435 -122 452 0 5 15 11 33 13 l32 3 3 124 c2 93
-1 126 -10 133 -22 13 -472 10 -486 -4z"/>
<path d="M37288 3361 c-28 -25 -33 -36 -33 -76 0 -40 5 -51 33 -76 58 -52 138
-34 169 38 43 104 -85 189 -169 114z m130 -13 c66 -72 8 -171 -86 -146 -61 16
-79 101 -32 148 28 28 90 27 118 -2z"/>
<path d="M37320 3286 c0 -31 5 -56 10 -56 6 0 10 9 10 20 0 26 14 25 33 -2 8
-13 18 -20 23 -15 4 4 2 13 -4 19 -8 8 -8 15 -1 24 6 7 9 23 7 36 -2 19 -10
24 -40 26 l-38 3 0 -55z m60 19 c0 -8 -9 -15 -20 -15 -11 0 -20 7 -20 15 0 8
9 15 20 15 11 0 20 -7 20 -15z"/>
<path d="M3124 3249 c-9 -15 45 -89 85 -116 45 -31 95 -38 160 -25 57 12 88
32 77 50 -3 6 -41 13 -84 17 -63 6 -90 14 -148 46 -79 43 -80 44 -90 28z"/>
<path d="M2758 3214 c-52 -27 -59 -40 -27 -52 13 -5 31 -35 53 -89 45 -111 90
-184 159 -252 91 -92 204 -141 323 -141 112 0 291 68 396 152 24 19 46 28 58
25 37 -10 40 16 9 71 -34 57 -56 67 -61 25 -2 -23 -15 -34 -63 -60 -130 -69
-296 -83 -433 -37 -42 14 -97 38 -122 54 -60 39 -140 122 -185 194 -32 50 -36
64 -31 97 8 48 -6 50 -76 13z"/>
<path d="M14741 2638 c-151 -75 -141 -293 16 -328 52 -12 128 11 169 51 150
146 2 370 -185 277z"/>
<path d="M26575 2388 c-2 -7 -15 -77 -28 -155 -18 -109 -21 -143 -11 -143 7 0
15 21 19 53 10 69 20 93 51 122 35 32 78 33 99 2 13 -21 14 -32 1 -98 -8 -41
-12 -76 -10 -78 10 -10 18 13 29 84 15 98 6 119 -52 123 -28 2 -51 -3 -69 -15
l-27 -17 7 49 c4 28 9 58 12 68 6 19 -14 24 -21 5z"/>
<path d="M26850 2380 c0 -13 5 -18 15 -14 8 4 15 12 15 20 0 8 -7 14 -15 14
-8 0 -15 -9 -15 -20z"/>
<path d="M27815 2390 c-11 -17 5 -32 21 -19 8 6 14 15 14 20 0 12 -27 11 -35
-1z"/>
<path d="M28204 2389 c-3 -6 -1 -16 5 -22 9 -9 14 -8 21 3 5 8 10 18 10 23 0
11 -28 8 -36 -4z"/>
<path d="M29388 2248 c-25 -151 -26 -180 -7 -145 9 16 12 16 32 2 29 -20 101
-19 134 2 51 34 71 135 33 173 -28 28 -82 30 -132 4 -27 -14 -28 -13 -28 8 1
13 5 42 9 66 6 31 5 42 -4 42 -8 0 -21 -51 -37 -152z m169 20 c67 -62 -23
-192 -111 -159 -61 24 -59 116 3 158 43 29 78 29 108 1z"/>
<path d="M30356 2363 c-4 -21 -16 -88 -28 -150 -19 -96 -20 -139 -4 -122 2 2
13 60 25 129 12 69 24 137 27 153 3 15 1 27 -4 27 -5 0 -13 -17 -16 -37z"/>
<path d="M26394 2338 c-7 -22 -17 -34 -34 -38 l-25 -6 24 -6 c20 -6 23 -11 17
-35 -25 -112 -27 -135 -15 -149 13 -16 62 -19 90 -4 20 11 27 50 9 50 -5 0
-10 -7 -10 -15 0 -18 -37 -38 -57 -31 -13 5 -15 18 -9 74 10 108 12 112 60
113 l41 2 -35 6 c-32 5 -35 9 -35 39 0 41 -9 41 -21 0z"/>
<path d="M27019 2299 c-49 -13 -71 -31 -91 -76 -22 -51 -18 -82 14 -113 25
-23 100 -28 143 -8 28 12 35 34 8 23 -73 -29 -115 -24 -146 17 -36 48 -20 58
93 58 98 0 100 0 100 24 0 54 -61 92 -121 75z m69 -25 c12 -8 22 -24 22 -35 0
-17 -7 -19 -80 -19 -44 0 -80 4 -80 8 0 11 41 48 60 55 28 10 55 7 78 -9z"/>
<path d="M28852 2302 c-30 -5 -56 -45 -48 -75 4 -17 17 -27 45 -36 50 -15 64
-46 31 -73 -27 -22 -37 -22 -74 -3 -33 17 -45 13 -26 -10 19 -23 95 -20 120 5
37 37 25 71 -33 95 -21 9 -40 22 -44 31 -12 31 55 72 72 44 10 -15 35 -12 29
4 -6 15 -37 23 -72 18z"/>
<path d="M25189 2279 c-32 -32 -21 -61 34 -87 39 -18 48 -27 45 -45 -2 -12
-15 -28 -31 -35 -23 -11 -31 -11 -57 4 -32 20 -50 13 -30 -11 8 -10 30 -15 61
-15 38 0 51 4 63 22 29 41 21 67 -30 89 -53 24 -63 42 -39 69 20 22 55 26 73
8 13 -13 27 -5 17 11 -11 20 -83 13 -106 -10z"/>
<path d="M25375 2213 c-9 -49 -18 -96 -20 -105 -2 -10 2 -18 9 -18 8 0 17 28
24 73 9 60 16 76 42 100 38 34 74 35 95 3 14 -21 15 -34 6 -82 -13 -69 -14
-94 -3 -94 4 0 13 29 19 65 13 73 42 122 80 131 56 14 72 -28 55 -139 -7 -42
-6 -57 3 -57 18 0 41 161 26 188 -16 30 -87 31 -124 2 l-26 -21 -11 21 c-13
25 -79 28 -115 4 -23 -15 -25 -15 -25 0 0 9 -4 16 -9 16 -5 0 -16 -39 -26 -87z"/>
<path d="M25826 2267 c-31 -26 -39 -41 -43 -77 -4 -36 -1 -51 17 -72 18 -24
29 -28 72 -28 85 0 148 68 134 143 -9 46 -38 67 -97 67 -37 0 -53 -6 -83 -33z
m134 -2 c43 -46 21 -122 -45 -154 -35 -17 -70 -6 -98 30 -17 23 -18 31 -7 63
14 44 63 86 99 86 16 0 37 -10 51 -25z"/>
<path d="M26111 2275 c-52 -45 -64 -123 -24 -167 20 -23 93 -24 133 -3 58 30
81 134 40 175 -31 31 -109 28 -149 -5z m121 1 c62 -46 24 -156 -59 -172 -66
-12 -106 41 -83 111 20 60 99 94 142 61z"/>
<path d="M26836 2278 c-33 -159 -38 -203 -19 -185 10 11 41 207 32 207 -5 0
-11 -10 -13 -22z"/>
<path d="M27221 2279 c-34 -32 -24 -60 32 -87 55 -26 62 -52 21 -79 -25 -16
-28 -16 -57 0 -33 20 -47 16 -27 -8 7 -9 29 -15 55 -15 47 0 73 20 77 60 3 20
-6 29 -44 50 -49 26 -61 53 -36 78 15 15 51 15 66 0 13 -13 27 -5 17 11 -11
19 -79 13 -104 -10z"/>
<path d="M27792 2253 c-6 -27 -16 -84 -22 -128 -7 -44 -19 -90 -26 -102 -18
-29 -50 -30 -65 -2 -13 24 -33 12 -23 -14 14 -37 83 -33 108 6 8 12 24 77 35
145 24 142 24 142 12 142 -5 0 -14 -21 -19 -47z"/>
<path d="M27909 2288 c0 -7 -3 -22 -5 -33 -14 -60 -16 -136 -4 -150 16 -19 90
-20 116 0 25 19 38 19 30 0 -3 -9 0 -15 8 -15 8 0 18 32 29 93 20 108 20 117
7 117 -5 0 -12 -17 -15 -37 -11 -72 -25 -109 -48 -131 -27 -26 -78 -32 -102
-12 -18 15 -17 38 1 143 4 25 3 37 -5 37 -6 0 -11 -6 -12 -12z"/>
<path d="M28176 2199 c-15 -92 -15 -122 -1 -107 3 3 14 51 24 106 14 77 15
102 6 102 -7 0 -18 -38 -29 -101z"/>
<path d="M28327 2280 c-57 -45 -73 -117 -36 -164 17 -22 28 -26 69 -26 52 0
80 7 80 20 0 5 -13 5 -29 0 -41 -11 -79 -1 -101 28 -25 31 -25 45 1 92 31 55
91 76 141 49 16 -9 19 -8 16 3 -3 8 -24 14 -59 16 -44 2 -61 -1 -82 -18z"/>
<path d="M28554 2267 c-47 -43 -58 -107 -24 -149 19 -25 28 -28 76 -28 55 0
94 12 94 30 0 5 -17 2 -37 -6 -65 -28 -133 6 -133 65 0 20 6 21 98 21 54 0
101 3 104 6 10 9 -11 68 -29 82 -9 6 -39 12 -65 12 -41 0 -54 -5 -84 -33z
m134 7 c12 -8 22 -24 22 -35 0 -17 -7 -19 -80 -19 -44 0 -80 4 -80 9 0 18 62
61 89 61 14 0 37 -7 49 -16z"/>
<path d="M29717 2282 c-64 -38 -82 -128 -34 -172 24 -23 99 -27 135 -6 61 33
83 133 39 174 -29 27 -99 29 -140 4z m118 -17 c29 -28 31 -54 9 -100 -29 -63
-115 -81 -149 -32 -60 86 67 206 140 132z"/>
<path d="M29962 2198 c11 -57 21 -105 23 -107 12 -11 34 16 69 83 23 45 43 73
48 68 5 -5 14 -42 20 -81 8 -53 14 -71 25 -69 16 4 128 208 114 208 -6 0 -29
-34 -52 -75 -40 -73 -55 -92 -65 -82 -3 3 -10 37 -16 76 -7 49 -15 71 -24 71
-8 0 -30 -34 -49 -75 -19 -41 -39 -75 -44 -75 -11 0 -25 46 -36 118 -4 23 -12
42 -19 42 -10 0 -8 -24 6 -102z"/>
<path d="M30457 2282 c-10 -10 -17 -30 -17 -45 0 -21 8 -30 45 -46 44 -19 55
-40 37 -67 -14 -22 -52 -26 -78 -9 -29 19 -43 13 -24 -10 22 -26 98 -16 123
16 27 37 15 63 -38 84 -35 13 -45 22 -45 39 0 12 5 27 12 34 15 15 54 16 63 2
3 -5 13 -10 22 -10 13 0 13 3 3 15 -18 21 -83 19 -103 -3z"/>
<path d="M27510 2246 c-6 -8 -10 -25 -8 -38 2 -19 10 -24 41 -26 31 -3 39 0
46 20 5 13 5 30 -1 41 -11 21 -61 23 -78 3z"/>
<path d="M29120 2246 c-21 -26 -8 -61 23 -64 35 -4 57 13 57 43 0 35 -56 49
-80 21z"/>
<path d="M32888 2084 c-146 -26 -260 -80 -342 -161 -149 -149 -150 -376 -3
-539 183 -203 596 -350 1177 -420 183 -22 650 -30 866 -15 710 50 1280 234
1538 496 172 174 194 420 49 556 -57 54 -108 82 -121 67 -33 -41 -132 -198
-132 -210 0 -8 11 -25 24 -38 56 -52 45 -120 -32 -199 -167 -170 -599 -325
-1077 -385 -428 -54 -945 -45 -1320 25 -410 76 -721 213 -786 346 -21 43 -21
49 -8 87 29 83 145 125 369 133 302 11 632 -63 1020 -227 165 -69 209 -79 263
-57 74 31 102 136 52 195 -55 65 -520 237 -833 307 -243 54 -531 71 -704 39z"/>
</g>
</svg>
